<svg width="20" height="16" viewBox="0 0 20 16" fill="none" xmlns="http://www.w3.org/2000/svg">
<path d="M16.8912 0.510112C17.2368 0.179306 17.6967 -0.00357696 18.1739 5.30217e-05C18.651 0.00368301 19.1081 0.193543 19.4487 0.529569C19.7893 0.865595 19.9867 1.3215 19.9994 1.8011C20.012 2.28069 19.8388 2.74645 19.5163 3.1001L9.72714 15.4087C9.55881 15.591 9.35565 15.7373 9.1298 15.8388C8.90396 15.9404 8.66007 15.9951 8.41271 15.9997C8.16536 16.0043 7.91962 15.9587 7.69019 15.8656C7.46076 15.7726 7.25236 15.634 7.07743 15.4581L0.585654 8.93128C0.404869 8.76192 0.259866 8.55768 0.159295 8.33075C0.0587241 8.10382 0.00464558 7.85884 0.000286364 7.61044C-0.00407285 7.36204 0.0413766 7.11531 0.133923 6.88495C0.226468 6.65459 0.364215 6.44534 0.538946 6.26967C0.713676 6.09399 0.921809 5.9555 1.15093 5.86246C1.38005 5.76941 1.62547 5.72372 1.87253 5.7281C2.1196 5.73248 2.36326 5.78685 2.58897 5.88797C2.81469 5.98908 3.01783 6.13487 3.18629 6.31663L8.32378 11.4793L16.8445 0.564379C16.8599 0.545388 16.8763 0.527271 16.8936 0.510112H16.8912Z" fill="white"/>
</svg>
