<svg width="19" height="19" viewBox="0 0 19 19" fill="none" xmlns="http://www.w3.org/2000/svg">
<path fill-rule="evenodd" clip-rule="evenodd" d="M13.4758 0.567324L0.567324 13.4758C0.203952 13.8391 0 14.3316 0 14.8447V18.1828C0 18.5391 0.289149 18.8282 0.645422 18.8282C0.645422 18.8282 2.92053 18.8282 3.98354 18.8282C4.49665 18.8282 4.98911 18.6243 5.35248 18.2609L18.2609 5.35248C18.6236 4.98976 18.8282 4.4973 18.8282 3.98354C18.8282 3.46979 18.6243 2.97733 18.2609 2.6146L16.2136 0.567324C15.8509 0.203952 15.3585 0 14.8447 0C14.3309 0 13.8385 0.204597 13.4758 0.567324ZM12.263 3.60533L15.2229 6.56523L4.43986 17.3483C4.31852 17.4696 4.15458 17.5374 3.98354 17.5374H1.29084V14.8447C1.29084 14.6737 1.35861 14.5097 1.47995 14.3884L12.263 3.60533ZM16.1355 5.6526L13.1756 2.6927L14.3884 1.47995C14.5091 1.35926 14.6737 1.29084 14.8447 1.29084C15.0157 1.29084 15.1803 1.35926 15.301 1.47995L17.3483 3.52723C17.469 3.64792 17.5374 3.81251 17.5374 3.98354C17.5374 4.15458 17.469 4.31916 17.3483 4.43986L16.1355 5.6526Z" fill="white"/>
</svg>
