<svg width="19" height="25" viewBox="0 0 19 25" fill="none" xmlns="http://www.w3.org/2000/svg">
<path d="M11.7984 11.252H7.85398C4.0748 11.252 1 14.1117 1 17.626V23.0609C1 23.5803 1.4198 24.0001 1.93916 24.0001H11.7984C15.5776 24.0001 18.6524 21.1404 18.6524 17.626C18.6524 14.1117 15.5776 11.252 11.7984 11.252ZM11.7984 22.1218H2.87925V17.626C2.87925 15.1466 5.11163 13.1303 7.85492 13.1303H11.7984C14.5417 13.1303 16.7741 15.1466 16.7741 17.626C16.7741 20.1054 14.5417 22.1218 11.7984 22.1218Z" fill="black" stroke="black" stroke-width="0.2"/>
<path d="M9.82617 10.1991C12.3619 10.1991 14.4252 8.13573 14.4252 5.59906C14.4252 3.06333 12.3619 1 9.82617 1C7.29044 1 5.22711 3.06333 5.22711 5.59906C5.22711 8.13573 7.29044 10.1991 9.82617 10.1991ZM9.82617 2.87738C11.3269 2.87738 12.5469 4.09828 12.5469 5.59812C12.5469 7.09983 11.326 8.3198 9.82617 8.3198C8.32633 8.3198 7.10543 7.09889 7.10543 5.59812C7.10543 4.09828 8.3254 2.87738 9.82617 2.87738Z" fill="black" stroke="black" stroke-width="0.2"/>
</svg>
