<svg width="69" height="76" viewBox="0 0 69 76" fill="none" xmlns="http://www.w3.org/2000/svg">
<path d="M39.1 32.4001C41.0383 32.4001 42.933 31.8253 44.5446 30.7485C46.1562 29.6716 47.4123 28.1411 48.1541 26.3504C48.8958 24.5596 49.0899 22.5892 48.7117 20.6882C48.3336 18.7872 47.4003 17.041 46.0297 15.6704C44.6591 14.2999 42.913 13.3665 41.0119 12.9884C39.1109 12.6102 37.1405 12.8043 35.3498 13.546C33.559 14.2878 32.0285 15.5439 30.9516 17.1555C29.8748 18.7671 29.3 20.6618 29.3 22.6001C29.3 25.1992 30.3325 27.6918 32.1704 29.5297C34.0083 31.3676 36.5009 32.4001 39.1 32.4001V32.4001ZM39.1 16.8001C40.2472 16.8001 41.3686 17.1402 42.3224 17.7775C43.2762 18.4148 44.0196 19.3207 44.4585 20.3805C44.8975 21.4403 45.0124 22.6065 44.7886 23.7316C44.5648 24.8567 44.0124 25.8901 43.2013 26.7013C42.3901 27.5124 41.3567 28.0648 40.2316 28.2886C39.1065 28.5124 37.9403 28.3975 36.8805 27.9586C35.8207 27.5196 34.9148 26.7762 34.2775 25.8224C33.6402 24.8686 33.3 23.7472 33.3 22.6001C33.3 21.0618 33.9111 19.5865 34.9988 18.4988C36.0865 17.4111 37.5618 16.8001 39.1 16.8001V16.8001Z" fill="black"/>
<path d="M27.8001 62.4H50.4001C51.9914 62.4 53.5175 61.7678 54.6427 60.6426C55.768 59.5174 56.4001 57.9913 56.4001 56.4V49.3C56.3948 46.2005 55.3461 43.1931 53.4232 40.7623C51.5003 38.3314 48.8151 36.6187 45.8001 35.9C45.4346 35.8176 45.0534 35.8396 44.6998 35.9634C44.3462 36.0871 44.0345 36.3077 43.8001 36.6C43.2585 37.3053 42.5619 37.8765 41.7643 38.2697C40.9667 38.6628 40.0894 38.8673 39.2001 38.8673C38.3109 38.8673 37.4335 38.6628 36.6359 38.2697C35.8383 37.8765 35.1417 37.3053 34.6001 36.6C34.3658 36.3077 34.054 36.0871 33.7004 35.9634C33.3468 35.8396 32.9656 35.8176 32.6001 35.9C29.5308 36.5457 26.7791 38.2323 24.8109 40.6744C22.8427 43.1164 21.7791 46.1636 21.8001 49.3V56.4C21.8001 57.9913 22.4323 59.5174 23.5575 60.6426C24.6827 61.7678 26.2088 62.4 27.8001 62.4V62.4ZM25.8001 49.3C25.7899 47.3064 26.4007 45.3591 27.5475 43.7284C28.6944 42.0977 30.3205 40.8645 32.2001 40.2C34.0421 42.0048 36.5213 43.0109 39.1001 43C40.378 43.0108 41.6454 42.769 42.8295 42.2885C44.0136 41.808 45.0911 41.0982 46.0001 40.2C47.8636 40.8892 49.4736 42.1286 50.6166 43.7538C51.7596 45.379 52.3816 47.3132 52.4001 49.3V56.4C52.4001 56.9304 52.1894 57.4391 51.8143 57.8142C51.4393 58.1893 50.9305 58.4 50.4001 58.4H27.8001C27.2697 58.4 26.761 58.1893 26.3859 57.8142C26.0108 57.4391 25.8001 56.9304 25.8001 56.4V49.3Z" fill="black"/>
<path d="M14.4 75.2H59C60.3132 75.2 61.6136 74.9413 62.8268 74.4388C64.0401 73.9362 65.1425 73.1997 66.0711 72.2711C66.9997 71.3425 67.7362 70.2401 68.2388 69.0268C68.7413 67.8136 69 66.5132 69 65.2V10C69 8.68678 68.7413 7.38642 68.2388 6.17317C67.7362 4.95991 66.9997 3.85752 66.0711 2.92893C65.1425 2.00035 64.0401 1.26375 62.8268 0.761205C61.6136 0.258658 60.3132 0 59 0H14.4C11.7478 0 9.2043 1.05357 7.32893 2.92893C5.45357 4.8043 4.4 7.34784 4.4 10V16.1H2C1.46957 16.1 0.96086 16.3107 0.585787 16.6858C0.210714 17.0609 0 17.5696 0 18.1C0 18.6304 0.210714 19.1391 0.585787 19.5142C0.96086 19.8893 1.46957 20.1 2 20.1H4.4V35.6H2C1.46957 35.6 0.96086 35.8107 0.585787 36.1858C0.210714 36.5609 0 37.0696 0 37.6C0 38.1304 0.210714 38.6391 0.585787 39.0142C0.96086 39.3893 1.46957 39.6 2 39.6H4.4V55.1H2C1.46957 55.1 0.96086 55.3107 0.585787 55.6858C0.210714 56.0609 0 56.5696 0 57.1C0 57.6304 0.210714 58.1391 0.585787 58.5142C0.96086 58.8893 1.46957 59.1 2 59.1H4.4V65.2C4.4 67.8522 5.45357 70.3957 7.32893 72.2711C9.2043 74.1464 11.7478 75.2 14.4 75.2V75.2ZM8.4 39.6H11.2C11.7304 39.6 12.2391 39.3893 12.6142 39.0142C12.9893 38.6391 13.2 38.1304 13.2 37.6C13.2 37.0696 12.9893 36.5609 12.6142 36.1858C12.2391 35.8107 11.7304 35.6 11.2 35.6H8.4V20.1H10.2C10.7304 20.1 11.2391 19.8893 11.6142 19.5142C11.9893 19.1391 12.2 18.6304 12.2 18.1C12.2 17.5696 11.9893 17.0609 11.6142 16.6858C11.2391 16.3107 10.7304 16.1 10.2 16.1H8.4V10C8.4 8.4087 9.03214 6.88258 10.1574 5.75736C11.2826 4.63214 12.8087 4 14.4 4H59C60.5913 4 62.1174 4.63214 63.2426 5.75736C64.3679 6.88258 65 8.4087 65 10V65.2C65 66.7913 64.3679 68.3174 63.2426 69.4426C62.1174 70.5679 60.5913 71.2 59 71.2H14.4C12.8087 71.2 11.2826 70.5679 10.1574 69.4426C9.03214 68.3174 8.4 66.7913 8.4 65.2V59.1H11.2C11.7304 59.1 12.2391 58.8893 12.6142 58.5142C12.9893 58.1391 13.2 57.6304 13.2 57.1C13.2 56.5696 12.9893 56.0609 12.6142 55.6858C12.2391 55.3107 11.7304 55.1 11.2 55.1H8.4V39.6Z" fill="black"/>
</svg>
