<svg width="22" height="23" viewBox="0 0 22 23" fill="none" xmlns="http://www.w3.org/2000/svg">
<path d="M7.04167 2.89H6.83333C6.94792 2.89 7.04167 2.7955 7.04167 2.68V2.89H14.9583V2.68C14.9583 2.7955 15.0521 2.89 15.1667 2.89H14.9583V4.78H16.8333V2.68C16.8333 1.75337 16.0859 1 15.1667 1H6.83333C5.91406 1 5.16667 1.75337 5.16667 2.68V4.78H7.04167V2.89ZM20.1667 4.78H1.83333C1.3724 4.78 1 5.15538 1 5.62V6.46C1 6.5755 1.09375 6.67 1.20833 6.67H2.78125L3.42448 20.3988C3.46615 21.2939 4.20052 22 5.08854 22H16.9115C17.8021 22 18.5339 21.2965 18.5755 20.3988L19.2187 6.67H20.7917C20.9062 6.67 21 6.5755 21 6.46V5.62C21 5.15538 20.6276 4.78 20.1667 4.78ZM16.7109 20.11H5.28906L4.65885 6.67H17.3411L16.7109 20.11Z" fill="black"/>
<path d="M7.04167 2.89H6.83333C6.94792 2.89 7.04167 2.7955 7.04167 2.68V2.89ZM7.04167 2.89H14.9583V2.68C14.9583 2.7955 15.0521 2.89 15.1667 2.89H14.9583V4.78H16.8333V2.68C16.8333 1.75337 16.0859 1 15.1667 1H6.83333C5.91406 1 5.16667 1.75337 5.16667 2.68V4.78H7.04167V2.89ZM20.1667 4.78H1.83333C1.3724 4.78 1 5.15537 1 5.62V6.46C1 6.5755 1.09375 6.67 1.20833 6.67H2.78125L3.42448 20.3987C3.46615 21.2939 4.20052 22 5.08854 22H16.9115C17.8021 22 18.5339 21.2965 18.5755 20.3987L19.2187 6.67H20.7917C20.9062 6.67 21 6.5755 21 6.46V5.62C21 5.15537 20.6276 4.78 20.1667 4.78ZM16.7109 20.11H5.28906L4.65885 6.67H17.3411L16.7109 20.11Z" stroke="black" stroke-width="0.6"/>
</svg>
