<svg width="25" height="25" viewBox="0 0 25 25" fill="none" xmlns="http://www.w3.org/2000/svg">
<path fill-rule="evenodd" clip-rule="evenodd" d="M23.9535 21.3075V9.85295C23.9535 9.11156 23.5954 8.41608 22.9925 7.98532C21.1631 6.67927 15.9159 2.93096 13.8111 1.42751C13.0131 0.857497 11.9404 0.857497 11.1424 1.42751C9.03754 2.93096 3.79037 6.67927 1.96098 7.98532C1.35807 8.41608 1 9.11156 1 9.85295V21.3075C1 21.9165 1.24177 22.5003 1.67253 22.9303C2.10253 23.3611 2.68631 23.6029 3.29535 23.6029C7.23875 23.6029 17.7147 23.6029 21.6581 23.6029C22.2672 23.6029 22.8509 23.3611 23.2809 22.9303C23.7117 22.5003 23.9535 21.9165 23.9535 21.3075ZM22.4232 10.5523L13.8111 16.7038C13.0131 17.2738 11.9404 17.2738 11.1424 16.7038L2.53023 10.5523V21.3075C2.53023 21.5103 2.61057 21.7054 2.75441 21.8484C2.89749 21.9923 3.09259 22.0726 3.29535 22.0726H21.6581C21.8609 22.0726 22.056 21.9923 22.1991 21.8484C22.3429 21.7054 22.4232 21.5103 22.4232 21.3075V10.5523ZM21.8724 9.06566L12.9213 2.67236C12.6558 2.48261 12.2977 2.48261 12.0322 2.67236L3.08112 9.06566L12.0322 15.459C12.2977 15.6487 12.6558 15.6487 12.9213 15.459L21.8724 9.06566Z" fill="black" stroke="black"/>
</svg>
