<svg width="27" height="23" viewBox="0 0 27 23" fill="none" xmlns="http://www.w3.org/2000/svg">
<path d="M23.6636 2.05601H11.525L10.8269 0.723389C10.7529 0.58391 10.6436 0.466204 10.5101 0.381929C10.3765 0.297655 10.2232 0.249737 10.0655 0.24292H3.71964C2.99834 0.24292 2.30659 0.529452 1.79656 1.03948C1.28653 1.54951 1 2.24126 1 2.96255V19.2804C1 20.0017 1.28653 20.6934 1.79656 21.2034C2.30659 21.7135 2.99834 22 3.71964 22H23.6636C24.3849 22 25.0767 21.7135 25.5867 21.2034C26.0967 20.6934 26.3833 20.0017 26.3833 19.2804V4.77564C26.3833 4.05435 26.0967 3.3626 25.5867 2.85257C25.0767 2.34254 24.3849 2.05601 23.6636 2.05601ZM23.6636 3.8691C23.9041 3.8691 24.1346 3.96461 24.3047 4.13462C24.4747 4.30463 24.5702 4.53521 24.5702 4.77564V5.68219H13.4469L12.4859 3.8691H23.6636ZM24.5702 19.2804C24.5702 19.5208 24.4747 19.7514 24.3047 19.9214C24.1346 20.0914 23.9041 20.1869 23.6636 20.1869H3.71964C3.4792 20.1869 3.24862 20.0914 3.07861 19.9214C2.9086 19.7514 2.81309 19.5208 2.81309 19.2804V2.96255C2.81309 2.72212 2.9086 2.49154 3.07861 2.32153C3.24862 2.15152 3.4792 2.05601 3.71964 2.05601H9.4762L12.0961 7.01481C12.1739 7.16093 12.2902 7.28296 12.4325 7.36766C12.5747 7.45235 12.7374 7.49649 12.9029 7.49528H24.5702V19.2804ZM4.62618 16.5607H9.15891V18.3738H4.62618V16.5607Z" fill="black" stroke="black" stroke-width="0.4"/>
</svg>
