<svg width="28" height="21" viewBox="0 0 28 21" fill="none" xmlns="http://www.w3.org/2000/svg">
<path d="M24.6187 2.90391C24.6187 2.87164 24.5864 2.87164 24.5864 2.83937C23.7152 1.06477 21.9406 0 19.9724 0H7.19523C5.22703 0 3.45242 1.09703 2.58125 2.83937C2.58125 2.87164 2.54898 2.87164 2.54898 2.90391L0.129063 8.42133C0.0645313 8.58266 0 8.77625 0 8.96984V15.4875C0 18.3269 2.32312 20.65 5.1625 20.65H22.0052C24.8445 20.65 27.1677 18.3269 27.1677 15.4875V8.96984C27.1677 8.77625 27.1354 8.58266 27.0386 8.42133L24.6187 2.90391ZM4.90438 4.00094C5.35609 3.12977 6.22727 2.61352 7.19523 2.61352H19.9724C20.9404 2.61352 21.8116 3.16203 22.2633 4.00094L23.8766 7.67922H18.8431C18.2301 7.67922 17.7138 8.09867 17.5848 8.71172C17.5525 8.84078 16.8749 12.0673 13.5838 12.0673C10.3895 12.0673 9.64742 9.06664 9.58289 8.71172C9.45383 8.09867 8.93758 7.67922 8.32453 7.67922H3.25883L4.90438 4.00094ZM24.5864 15.4875C24.5864 16.9072 23.4248 18.0687 22.0052 18.0687H5.1625C3.74281 18.0687 2.58125 16.9072 2.58125 15.4875V10.2605H7.35656C8.09867 12.1641 9.97008 14.6486 13.5838 14.6486C17.1976 14.6486 19.069 12.1641 19.8111 10.2605H24.5864V15.4875Z" fill="#333333"/>
</svg>
