<svg width="90" height="76" viewBox="0 0 90 76" fill="none" xmlns="http://www.w3.org/2000/svg">
<path d="M68 0C55.86 0 46 9.87 46 22C46 22.67 46.03 23.34 46.09 24H6C2.69 24 0 26.69 0 30V70C0 73.31 2.69 76 6 76H76C79.3 76 82 73.31 82 70V38.96C86.88 34.92 90 28.81 90 22C90 9.87 80.13 0 68 0ZM6 28H46.83C47.03 28.68 47.25 29.35 47.51 30C49.55 35.22 53.54 39.48 58.58 41.87L42.11 52.86C41.43 53.3 40.56 53.3 39.89 52.86L5.6 30L4.23 29.08C4.56 28.44 5.22 28 6 28ZM4 33.74L28.39 50L4 66.26V33.74ZM76 72H6C5.22 72 4.56 71.55 4.23 70.91L31.99 52.4L37.67 56.18C38.68 56.86 39.84 57.19 41 57.19C42.15 57.19 43.31 56.86 44.32 56.18L50 52.4L77.76 70.91C77.43 71.55 76.77 72 76 72ZM78 66.26L53.6 50L63.35 43.5C64.85 43.82 66.4 44 68 44C71.6 44 74.99 43.12 78 41.58V66.26ZM68 40C58.07 40 50 31.92 50 22C50 12.07 58.07 4 68 4C77.92 4 86 12.07 86 22C86 31.92 77.92 40 68 40Z" fill="black"/>
<path d="M68 10C66.89 10 66 10.89 66 12V24C66 25.1 66.89 26 68 26C69.1 26 70 25.1 70 24V12C70 10.89 69.1 10 68 10Z" fill="black"/>
<path d="M68 34C69.1046 34 70 33.1046 70 32C70 30.8954 69.1046 30 68 30C66.8954 30 66 30.8954 66 32C66 33.1046 66.8954 34 68 34Z" fill="black"/>
</svg>
