<svg width="146" height="35" viewBox="0 0 146 35" fill="none" xmlns="http://www.w3.org/2000/svg">
<g clip-path="url(#clip0_53:1406)">
<path d="M18.5028 24.7146C15.6838 24.7146 13.4144 22.5167 13.4144 19.8173V8.37428C13.4144 7.08425 13.1755 5.81812 12.626 4.64755C12.2677 3.8592 11.766 3.16641 11.1449 2.54529C9.5204 0.944704 7.60926 0.705811 6.65369 0.705811H13.4144C16.2333 0.705811 19.6972 1.66138 21.6801 3.57253C23.6629 5.48367 23.5912 7.99205 23.5912 10.5004V19.8173C23.5673 22.5167 21.2978 24.7146 18.5028 24.7146Z" fill="#78D12A"/>
<path d="M31.4986 24.7146C28.6796 24.7146 26.4101 22.5167 26.4101 19.8173V8.37428C26.4101 7.08425 26.1713 5.81812 25.6218 4.64755C25.2635 3.8592 24.7618 3.16641 24.1407 2.54529C22.5162 0.944704 20.605 0.705811 19.6495 0.705811H26.4101C29.2291 0.705811 32.693 1.66138 34.6758 3.57253C36.6587 5.48367 36.587 7.99205 36.587 10.5004V19.8173C36.587 22.5167 34.3175 24.7146 31.4986 24.7146Z" fill="#F76014"/>
<path d="M61.6947 1.15978C62.6741 1.15978 63.5819 1.35089 64.4419 1.70923C65.302 2.06757 66.0425 2.56925 66.6875 3.21426C67.3325 3.83538 67.8342 4.59984 68.2164 5.45985C68.5987 6.31987 68.7898 7.22766 68.7898 8.20712V23.6874H64.2269V7.92045C64.1314 7.29933 63.8447 6.77376 63.3669 6.34376C62.8891 5.91375 62.3397 5.69875 61.6947 5.69875C61.0258 5.69875 60.4524 5.91375 59.9746 6.36765C59.4968 6.79765 59.2341 7.34711 59.1624 7.99212V23.6874H54.5757V8.23101C54.5757 7.53822 54.3368 6.94099 53.8351 6.43931C53.3334 5.93764 52.7362 5.69875 52.0434 5.69875C51.3984 5.69875 50.8489 5.88986 50.3711 6.29598C49.9172 6.7021 49.6067 7.20377 49.4872 7.82489V23.6635H44.9244V8.20712C44.9244 7.22766 45.1155 6.31987 45.4977 5.45985C45.88 4.59984 46.3816 3.85927 47.0266 3.21426C47.6716 2.59314 48.4122 2.09146 49.2722 1.70923C50.1322 1.35089 51.04 1.15978 52.0195 1.15978C52.9512 1.15978 53.8351 1.327 54.6712 1.66145C55.5073 1.9959 56.224 2.4498 56.8451 3.04703C57.4902 2.4498 58.2307 1.9959 59.043 1.66145C59.903 1.327 60.763 1.15978 61.6947 1.15978Z" fill="#333333"/>
<path d="M79.1816 5.81819C80.4238 5.81819 81.5705 6.05708 82.6694 6.51098C83.7445 6.96488 84.7 7.60989 85.5123 8.42213C86.3245 9.23436 86.9695 10.1899 87.4234 11.265C87.8773 12.34 88.1162 13.5105 88.1162 14.7528C88.1162 15.995 87.8773 17.1417 87.4234 18.2406C86.9695 19.3156 86.3245 20.2712 85.5123 21.0835C84.7 21.8957 83.7445 22.5407 82.6694 22.9946C81.5944 23.4485 80.4238 23.6874 79.1816 23.6874C77.9394 23.6874 76.7927 23.4485 75.6938 22.9946C74.6188 22.5407 73.6632 21.8957 72.8509 21.0835C72.0387 20.2712 71.3937 19.3156 70.9398 18.2406C70.4859 17.1656 70.247 15.995 70.247 14.7528C70.247 13.5105 70.4859 12.3639 70.9398 11.265C71.3937 10.1899 72.0387 9.23436 72.8509 8.42213C73.6632 7.60989 74.6188 6.96488 75.6938 6.51098C76.7688 6.0332 77.9394 5.81819 79.1816 5.81819ZM79.1816 19.1006C79.7788 19.1006 80.3522 18.9812 80.8777 18.7662C81.4033 18.5512 81.8811 18.2406 82.2633 17.8345C82.6456 17.4523 82.9561 16.9745 83.195 16.4489C83.41 15.9234 83.5295 15.35 83.5295 14.7528C83.5295 14.1556 83.41 13.5822 83.195 13.0566C82.98 12.5311 82.6694 12.0533 82.2633 11.6711C81.8811 11.2888 81.4033 10.9783 80.8777 10.7394C80.3522 10.5244 79.7788 10.4049 79.1816 10.4049C78.5844 10.4049 78.011 10.5244 77.4855 10.7394C76.9599 10.9544 76.4821 11.265 76.0999 11.6711C75.7177 12.0533 75.4071 12.5311 75.1682 13.0566C74.9532 13.5822 74.8338 14.1556 74.8338 14.7528C74.8338 15.35 74.9532 15.9234 75.1682 16.4489C75.3832 16.9745 75.6938 17.4523 76.0999 17.8345C76.4821 18.2167 76.9599 18.5273 77.4855 18.7662C78.011 19.0051 78.5844 19.1006 79.1816 19.1006Z" fill="#333333"/>
<path d="M107.419 23.6874H102.832V14.7528C102.832 14.1556 102.713 13.5822 102.498 13.0566C102.283 12.5311 101.972 12.0533 101.566 11.6711C101.184 11.2888 100.706 10.9783 100.18 10.7394C99.6548 10.5244 99.0814 10.4049 98.4842 10.4049C97.8869 10.4049 97.3136 10.5244 96.788 10.7394C96.2625 10.9544 95.7847 11.265 95.4024 11.6711C95.0202 12.0533 94.7097 12.5311 94.4708 13.0566C94.2558 13.5822 94.1363 14.1556 94.1363 14.7528V23.6874H89.5496V14.7528C89.5496 13.5105 89.7885 12.3639 90.2423 11.265C90.6962 10.1899 91.3413 9.23436 92.1535 8.42213C92.9657 7.60989 93.9213 6.96488 94.9963 6.51098C96.0713 6.05708 97.2419 5.81819 98.4842 5.81819C99.7264 5.81819 100.873 6.05708 101.972 6.51098C103.047 6.96488 104.003 7.60989 104.815 8.42213C105.627 9.23436 106.272 10.1899 106.726 11.265C107.18 12.34 107.419 13.5105 107.419 14.7528V23.6874Z" fill="#333333"/>
<path d="M117.763 34.2943C116.521 34.2943 115.374 34.0554 114.275 33.6015C113.2 33.1476 112.244 32.5026 111.432 31.6904C110.62 30.8781 109.975 29.9226 109.521 28.8475C109.067 27.7725 108.828 26.602 108.828 25.3597H113.391C113.391 25.9569 113.511 26.5303 113.726 27.0559C113.941 27.5814 114.251 28.0592 114.657 28.4414C115.039 28.8237 115.517 29.1342 116.043 29.3731C116.568 29.5881 117.142 29.7076 117.739 29.7076C118.336 29.7076 118.91 29.5881 119.435 29.3731C119.961 29.1581 120.438 28.8476 120.821 28.4414C121.203 28.0592 121.513 27.5814 121.752 27.0559C121.967 26.5303 122.087 25.9569 122.087 25.3597V22.5647C120.749 23.3052 119.292 23.6636 117.715 23.6636C116.473 23.6636 115.326 23.4247 114.227 22.9708C113.152 22.5169 112.197 21.8719 111.384 21.0596C110.572 20.2474 109.927 19.2918 109.473 18.2168C109.019 17.1418 108.78 15.9712 108.78 14.729C108.78 13.4867 109.019 12.34 109.473 11.2411C109.927 10.1661 110.572 9.21055 111.384 8.39831C112.197 7.58607 113.152 6.94106 114.227 6.48717C115.302 6.03327 116.473 5.79438 117.715 5.79438C118.957 5.79438 120.104 6.03327 121.203 6.48717C122.278 6.94106 123.233 7.58607 124.046 8.39831C124.858 9.21055 125.503 10.1661 125.957 11.2411C126.411 12.3162 126.65 13.4867 126.65 14.729V25.3358C126.65 26.5781 126.411 27.7248 125.957 28.8237C125.503 29.8987 124.858 30.8543 124.046 31.6665C123.233 32.4787 122.278 33.1237 121.203 33.5776C120.176 34.0554 119.005 34.2943 117.763 34.2943ZM117.763 19.1007C118.336 19.1007 118.886 19.0052 119.411 18.7902C119.937 18.5752 120.391 18.2885 120.797 17.9063C121.179 17.524 121.513 17.0701 121.752 16.5685C121.991 16.0668 122.111 15.5173 122.135 14.944V14.7768C122.135 14.1795 122.015 13.6062 121.8 13.0806C121.585 12.555 121.275 12.0773 120.868 11.695C120.486 11.3128 120.008 11.0022 119.483 10.7634C118.957 10.5483 118.384 10.4289 117.787 10.4289C117.189 10.4289 116.616 10.5483 116.091 10.7634C115.565 10.9784 115.087 11.2889 114.705 11.695C114.323 12.0773 114.012 12.555 113.773 13.0806C113.558 13.6062 113.439 14.1795 113.439 14.7768C113.439 15.374 113.558 15.9473 113.773 16.4729C113.988 16.9985 114.299 17.4762 114.705 17.8585C115.087 18.2407 115.565 18.5513 116.091 18.7902C116.616 19.0052 117.166 19.1007 117.763 19.1007Z" fill="#333333"/>
<path d="M137.065 5.81819C138.308 5.81819 139.454 6.05708 140.553 6.51098C141.628 6.96488 142.584 7.60989 143.396 8.42213C144.208 9.23436 144.853 10.1899 145.307 11.265C145.761 12.34 146 13.5105 146 14.7528C146 15.995 145.761 17.1417 145.307 18.2406C144.853 19.3156 144.208 20.2712 143.396 21.0835C142.584 21.8957 141.628 22.5407 140.553 22.9946C139.478 23.4485 138.308 23.6874 137.065 23.6874C135.823 23.6874 134.676 23.4485 133.578 22.9946C132.503 22.5407 131.547 21.8957 130.735 21.0835C129.922 20.2712 129.277 19.3156 128.824 18.2406C128.37 17.1656 128.131 15.995 128.131 14.7528C128.131 13.5105 128.37 12.3639 128.824 11.265C129.277 10.1899 129.922 9.23436 130.735 8.42213C131.547 7.60989 132.503 6.96488 133.578 6.51098C134.676 6.0332 135.823 5.81819 137.065 5.81819ZM137.065 19.1006C137.663 19.1006 138.236 18.9812 138.762 18.7662C139.287 18.5512 139.765 18.2406 140.147 17.8345C140.529 17.4523 140.84 16.9745 141.079 16.4489C141.294 15.9234 141.413 15.35 141.413 14.7528C141.413 14.1556 141.294 13.5822 141.079 13.0566C140.864 12.5311 140.553 12.0533 140.147 11.6711C139.765 11.2888 139.287 10.9783 138.762 10.7394C138.236 10.5244 137.663 10.4049 137.065 10.4049C136.468 10.4049 135.895 10.5244 135.369 10.7394C134.844 10.9544 134.366 11.265 133.984 11.6711C133.601 12.0533 133.291 12.5311 133.052 13.0566C132.837 13.5822 132.718 14.1556 132.718 14.7528C132.718 15.35 132.837 15.9234 133.052 16.4489C133.267 16.9745 133.578 17.4523 133.984 17.8345C134.366 18.2167 134.844 18.5273 135.369 18.7662C135.919 19.0051 136.468 19.1006 137.065 19.1006Z" fill="#333333"/>
<path d="M5.48313 24.7872C2.6642 24.7872 0.394714 22.5894 0.394714 19.8899V0.778435C3.21365 0.778435 6.0087 1.35178 7.99151 3.26292C9.97432 5.17407 10.5716 7.87356 10.5716 10.5969V19.8899C10.5716 22.5894 8.30207 24.7872 5.48313 24.7872Z" fill="#0AACDD"/>
</g>
<defs>
<clipPath id="clip0_53:1406">
<rect width="145.605" height="33.5884" fill="white" transform="translate(0.394714 0.705811)"/>
</clipPath>
</defs>
</svg>
