<svg width="37" height="25" viewBox="0 0 37 25" fill="none" xmlns="http://www.w3.org/2000/svg">
<path d="M18.5028 24.7146C15.6838 24.7146 13.4144 22.5167 13.4144 19.8173V8.37428C13.4144 7.08425 13.1755 5.81812 12.626 4.64755C12.2677 3.8592 11.766 3.16641 11.1449 2.54529C9.5204 0.944704 7.60926 0.705811 6.65369 0.705811H13.4144C16.2333 0.705811 19.6972 1.66138 21.6801 3.57253C23.6629 5.48367 23.5912 7.99205 23.5912 10.5004V19.8173C23.5673 22.5167 21.2978 24.7146 18.5028 24.7146Z" fill="#78D12A"/>
<path d="M31.4986 24.7146C28.6796 24.7146 26.4101 22.5167 26.4101 19.8173V8.37428C26.4101 7.08425 26.1713 5.81812 25.6218 4.64755C25.2635 3.8592 24.7618 3.16641 24.1407 2.54529C22.5162 0.944704 20.605 0.705811 19.6495 0.705811H26.4101C29.2291 0.705811 32.693 1.66138 34.6758 3.57253C36.6587 5.48367 36.587 7.99205 36.587 10.5004V19.8173C36.587 22.5167 34.3175 24.7146 31.4986 24.7146Z" fill="#F76014"/>
<path d="M5.48313 24.7872C2.6642 24.7872 0.394714 22.5894 0.394714 19.8899V0.778442C3.21365 0.778442 6.0087 1.35179 7.99151 3.26293C9.97432 5.17407 10.5716 7.87356 10.5716 10.5969V19.8899C10.5716 22.5894 8.30207 24.7872 5.48313 24.7872Z" fill="#0AACDD"/>
</svg>
