<svg width="26" height="26" viewBox="0 0 26 26" fill="none" xmlns="http://www.w3.org/2000/svg">
<path fill-rule="evenodd" clip-rule="evenodd" d="M26 23.0029V10.028C26 9.18818 25.5944 8.4004 24.9115 7.91246C22.8393 6.43306 16.8957 2.18725 14.5115 0.48425C13.6075 -0.161417 12.3925 -0.161417 11.4885 0.48425C9.10433 2.18725 3.16073 6.43306 1.08853 7.91246C0.405597 8.4004 0 9.18818 0 10.028V23.0029C0 23.6927 0.273865 24.354 0.761798 24.8411C1.24886 25.329 1.91013 25.6029 2.6 25.6029C7.0668 25.6029 18.9332 25.6029 23.4 25.6029C24.0899 25.6029 24.7511 25.329 25.2382 24.8411C25.7261 24.354 26 23.6927 26 23.0029ZM24.2667 10.8201L14.5115 17.7881C13.6075 18.4338 12.3925 18.4338 11.4885 17.7881L1.73333 10.8201V23.0029C1.73333 23.2325 1.82433 23.4535 1.98727 23.6156C2.14933 23.7785 2.37033 23.8695 2.6 23.8695H23.4C23.6297 23.8695 23.8507 23.7785 24.0127 23.6156C24.1757 23.4535 24.2667 23.2325 24.2667 23.0029V10.8201ZM23.6427 9.13618L13.5035 1.89433C13.2028 1.6794 12.7972 1.6794 12.4965 1.89433L2.35733 9.13618L12.4965 16.378C12.7972 16.593 13.2028 16.593 13.5035 16.378L23.6427 9.13618Z" fill="white"/>
</svg>
