<svg width="28" height="28" viewBox="0 0 28 28" fill="none" xmlns="http://www.w3.org/2000/svg">
<path d="M12.0311 20.7311V20.24C12.0311 20.1244 11.9449 20.0089 11.83 19.98C11.198 19.8644 10.6809 19.6333 10.25 19.2289C9.96276 18.94 9.76167 18.5644 9.64676 18.1311C9.53186 17.6689 9.87658 17.2356 10.3362 17.2356H10.3649C10.7097 17.2356 10.9969 17.4667 11.0544 17.7844C11.1118 18.0733 11.2267 18.2756 11.4278 18.4489C11.7151 18.7089 12.0598 18.8244 12.4907 18.8244C12.9503 18.8244 13.2951 18.7089 13.5249 18.5067C13.7834 18.3044 13.8983 17.9867 13.8983 17.6111C13.8983 17.2644 13.7834 16.9756 13.5536 16.7444C13.3238 16.5133 12.9503 16.3111 12.4333 16.1378C11.5715 15.8489 10.9395 15.5022 10.5086 15.0978C10.0777 14.6933 9.87658 14.1156 9.87658 13.4222C9.87658 12.7578 10.0777 12.2089 10.4798 11.7756C10.8533 11.4 11.3416 11.14 11.9449 11.0244C12.0598 10.9956 12.146 10.9089 12.146 10.7644V10.1289C12.146 9.86889 12.3471 9.63778 12.6343 9.63778H12.6631C12.9216 9.63778 13.1514 9.84 13.1514 10.1289V10.7933C13.1514 10.9089 13.2376 11.0244 13.3525 11.0244C13.9558 11.14 14.4154 11.4289 14.7889 11.8622C15.0187 12.1511 15.191 12.5267 15.2772 12.9311C15.3634 13.3644 15.0187 13.7978 14.559 13.7978H14.5016C14.1569 13.7978 13.8696 13.5667 13.7834 13.22C13.726 12.96 13.6398 12.7578 13.4962 12.5844C13.2663 12.2956 12.9503 12.1222 12.5769 12.1222C12.1747 12.1222 11.8587 12.2378 11.6576 12.44C11.4566 12.6711 11.3416 12.96 11.3416 13.3356C11.3416 13.6822 11.4566 13.9711 11.6576 14.1733C11.8875 14.4044 12.2609 14.6067 12.8354 14.8089C13.6972 15.1267 14.3292 15.4733 14.7314 15.8778C15.1623 16.2822 15.3634 16.8311 15.3634 17.5533C15.3634 18.2756 15.1623 18.8244 14.7314 19.2289C14.358 19.6044 13.8409 19.8356 13.2089 19.9511C13.094 19.98 13.0078 20.0667 13.0078 20.2111V20.7022C13.0078 20.9622 12.8067 21.1933 12.5194 21.1933C12.2322 21.2222 12.0311 21.02 12.0311 20.7311ZM26.9116 5.18889C26.653 4.75556 25.8199 3.74444 25.0156 2.87778C23.2633 1 22.7749 1 22.5451 1C22.3153 1 21.8269 1 20.0746 2.84889C19.2702 3.71556 18.4372 4.72667 18.1786 5.16C18.0063 5.42 18.0924 5.79556 18.3797 5.94C18.667 6.08444 19.0117 6.02667 19.1553 5.73778C19.5288 5.13111 21.0226 3.39778 21.9706 2.56V15.82C21.9706 17.1489 21.712 18.42 21.2237 19.6333C20.7353 20.8467 19.9884 21.9444 19.0692 22.8689C17.2019 24.8044 14.7027 25.8444 12.0598 25.8444C6.60172 25.8444 2.14907 21.3667 2.14907 15.8778C2.14907 10.3889 6.60172 5.91111 12.0598 5.91111H14.7889C15.1049 5.91111 15.3634 5.65111 15.3634 5.33333C15.3634 5.01556 15.1049 4.75556 14.7889 4.75556H12.0598C5.96973 4.75556 1 9.75333 1 15.8778C1 22.0022 5.96973 27 12.0598 27C15.0187 27 17.8052 25.8444 19.8735 23.7356C20.9077 22.6956 21.712 21.4822 22.2866 20.1244C22.8324 18.7956 23.1196 17.3511 23.1196 15.8778V2.61778C24.0389 3.45556 25.5614 5.16 25.9349 5.79556C26.0498 5.96889 26.2221 6.08444 26.4232 6.08444C26.5381 6.08444 26.6243 6.05556 26.7105 5.99778C26.9977 5.79556 27.0839 5.44889 26.9116 5.18889Z" fill="white" stroke="white" stroke-width="0.5"/>
</svg>
