<svg width="28" height="28" viewBox="0 0 28 28" fill="none" xmlns="http://www.w3.org/2000/svg">
<path d="M9.2155 2.49159V12.7901C9.2155 13.1857 9.05836 13.5651 8.77863 13.8449C8.4989 14.1246 8.11951 14.2817 7.72392 14.2817H2.49159C2.096 14.2817 1.7166 14.1246 1.43688 13.8449C1.15715 13.5651 1 13.1857 1 12.7901V2.49159C1 2.09599 1.15715 1.7166 1.43688 1.43688C1.7166 1.15715 2.09599 1 2.49159 1H7.72392C8.11951 1 8.4989 1.15715 8.77863 1.43688C9.05836 1.7166 9.2155 2.09599 9.2155 2.49159ZM2.49159 18.1753H7.72392C8.11951 18.1753 8.4989 18.3325 8.77863 18.6122C9.05836 18.8919 9.2155 19.2713 9.2155 19.6669V25.1484C9.2155 25.544 9.05836 25.9234 8.77863 26.2031C8.4989 26.4829 8.11951 26.64 7.72392 26.64H2.49159C2.09599 26.64 1.7166 26.4829 1.43688 26.2031C1.15715 25.9234 1 25.544 1 25.1484V19.6669C1 19.2713 1.15715 18.8919 1.43688 18.6122C1.7166 18.3325 2.096 18.1753 2.49159 18.1753ZM14.6007 12.046H25.1484C25.544 12.046 25.9234 12.2032 26.2031 12.4829C26.4829 12.7626 26.64 13.142 26.64 13.5376V25.1484C26.64 25.544 26.4828 25.9234 26.2031 26.2031C25.9234 26.4828 25.544 26.64 25.1484 26.64H14.6007C14.2051 26.64 13.8257 26.4829 13.546 26.2031C13.2663 25.9234 13.1091 25.544 13.1091 25.1484V13.5376C13.1091 13.142 13.2663 12.7626 13.546 12.4829C13.8257 12.2032 14.2051 12.046 14.6007 12.046ZM14.6007 1H25.1484C25.544 1 25.9234 1.15715 26.2031 1.43688C26.4829 1.7166 26.64 2.09599 26.64 2.49159V6.66084C26.64 7.05644 26.4829 7.43583 26.2031 7.71555C25.9234 7.99528 25.544 8.15243 25.1484 8.15243H14.6007C14.2051 8.15243 13.8257 7.99528 13.546 7.71555C13.2663 7.43583 13.1091 7.05644 13.1091 6.66084V2.49159C13.1091 2.09599 13.2663 1.7166 13.546 1.43688C13.8257 1.15715 14.2051 1 14.6007 1Z" stroke="white" stroke-width="2"/>
</svg>
