<svg width="160" height="56" viewBox="0 0 160 56" fill="none" xmlns="http://www.w3.org/2000/svg">
<path d="M19 11H143C152.389 11 160 18.6112 160 28V28C160 37.3888 152.389 45 143 45H19V11Z" fill="#0AACDD"/>
<path d="M58.966 33H60.926V26.644L63.558 33H65.042L67.66 26.644V33H69.62V23.228H67.408L64.3 30.494L61.192 23.228H58.966V33ZM74.8618 30.662L72.8598 25.244H70.6618L73.7698 32.804L72.0898 36.668H74.1758L78.9778 25.244H76.8918L74.8618 30.662ZM84.7843 33H86.9123L88.3263 27.582L89.7403 33H91.8543L94.1223 25.244H92.2463L90.8743 31.138L89.4183 25.244H87.3463L85.8623 31.152L84.4903 25.244H82.5023L84.7843 33ZM98.5148 26.728C99.5228 26.728 100.335 27.372 100.363 28.394H96.6808C96.8348 27.33 97.5768 26.728 98.5148 26.728ZM102.197 30.564H100.083C99.8308 31.082 99.3688 31.502 98.5288 31.502C97.5488 31.502 96.7648 30.858 96.6668 29.71H102.337C102.379 29.458 102.393 29.206 102.393 28.954C102.393 26.644 100.811 25.118 98.5708 25.118C96.2748 25.118 94.6788 26.672 94.6788 29.122C94.6788 31.558 96.3168 33.126 98.5708 33.126C100.489 33.126 101.777 31.992 102.197 30.564ZM105.783 26.378V22.64H103.823V33H105.783V31.894C106.259 32.566 107.127 33.126 108.345 33.126C110.333 33.126 111.887 31.516 111.887 29.094C111.887 26.672 110.333 25.118 108.345 25.118C107.169 25.118 106.259 25.664 105.783 26.378ZM109.885 29.094C109.885 30.564 108.891 31.404 107.827 31.404C106.777 31.404 105.783 30.592 105.783 29.122C105.783 27.652 106.777 26.84 107.827 26.84C108.891 26.84 109.885 27.624 109.885 29.094ZM119.332 30.788C119.276 27.946 114.978 28.828 114.978 27.414C114.978 26.966 115.356 26.672 116.084 26.672C116.854 26.672 117.33 27.078 117.386 27.68H119.262C119.15 26.14 118.016 25.118 116.14 25.118C114.222 25.118 113.074 26.154 113.074 27.442C113.074 30.284 117.456 29.402 117.456 30.788C117.456 31.236 117.036 31.586 116.266 31.586C115.482 31.586 114.936 31.138 114.866 30.55H112.892C112.976 31.992 114.334 33.126 116.28 33.126C118.17 33.126 119.332 32.118 119.332 30.788ZM120.941 33H122.901V25.244H120.941V33ZM121.935 24.32C122.621 24.32 123.139 23.816 123.139 23.172C123.139 22.528 122.621 22.024 121.935 22.024C121.235 22.024 120.731 22.528 120.731 23.172C120.731 23.816 121.235 24.32 121.935 24.32ZM125.145 30.592C125.145 32.37 126.139 33 127.623 33H128.855V31.348H127.945C127.329 31.348 127.119 31.124 127.119 30.606V26.854H128.855V25.244H127.119V23.326H125.145V25.244H124.221V26.854H125.145V30.592ZM133.597 26.728C134.605 26.728 135.417 27.372 135.445 28.394H131.763C131.917 27.33 132.659 26.728 133.597 26.728ZM137.279 30.564H135.165C134.913 31.082 134.451 31.502 133.611 31.502C132.631 31.502 131.847 30.858 131.749 29.71H137.419C137.461 29.458 137.475 29.206 137.475 28.954C137.475 26.644 135.893 25.118 133.653 25.118C131.357 25.118 129.761 26.672 129.761 29.122C129.761 31.558 131.399 33.126 133.653 33.126C135.571 33.126 136.859 31.992 137.279 30.564Z" fill="white"/>
<g filter="url(#filter0_d_2_43)">
<circle cx="28" cy="28" r="20" fill="white"/>
</g>
<path fill-rule="evenodd" clip-rule="evenodd" d="M28.7441 25.1032V27.8427C29.3988 27.8117 30.0283 27.6566 30.6074 27.3884C30.3233 26.5213 29.7075 25.2957 28.7441 25.1031V25.1032Z" fill="#0AACDD"/>
<path fill-rule="evenodd" clip-rule="evenodd" d="M30.7456 27.862C30.1216 28.1405 29.4459 28.3009 28.7444 28.3312V29.853H31.0099C30.9929 29.1517 30.9022 28.4772 30.7458 27.862H30.7456Z" fill="#0AACDD"/>
<path fill-rule="evenodd" clip-rule="evenodd" d="M30.6077 32.8063C30.0285 32.5381 29.3989 32.3833 28.7444 32.3524V35.0916C29.7088 34.8989 30.3224 33.6735 30.6077 32.8064V32.8063Z" fill="#0AACDD"/>
<path fill-rule="evenodd" clip-rule="evenodd" d="M25.9544 33.0366C25.6278 33.23 25.321 33.4617 25.0402 33.7299C25.5906 34.2545 26.2597 34.6552 27.0027 34.8879C26.516 34.3796 26.18 33.6986 25.9546 33.0366H25.9544Z" fill="#0AACDD"/>
<path fill-rule="evenodd" clip-rule="evenodd" d="M31.0094 30.3418H28.7441V31.8638C29.4457 31.8941 30.1213 32.054 30.7453 32.3328C30.9018 31.7174 30.9924 31.0431 31.0094 30.3418Z" fill="#0AACDD"/>
<path fill-rule="evenodd" clip-rule="evenodd" d="M28.2554 35.0916V32.3524C27.6012 32.383 26.9715 32.5386 26.3923 32.8068C26.677 33.6738 27.2915 34.8989 28.2554 35.0916V35.0916Z" fill="#0AACDD"/>
<path fill-rule="evenodd" clip-rule="evenodd" d="M33.6278 19H19.0502C18.4711 19 18.0003 19.4711 18.0003 20.0497V22.4183L33.628 22.4185L33.6277 19L33.6278 19ZM20.1976 21.1977H19.2209V20.2208H20.1976V21.1977ZM21.6629 21.1977H20.6863V20.2208H21.6629V21.1977ZM23.128 21.1977H22.1511V20.2208H23.1277L23.128 21.1977ZM32.8952 21.1977H24.1045V20.2208H32.8952V21.1977Z" fill="#0AACDD"/>
<path fill-rule="evenodd" clip-rule="evenodd" d="M29.9971 34.8879C30.7399 34.6552 31.4092 34.2545 31.9597 33.7299C31.6786 33.4613 31.372 33.2297 31.0455 33.0366C30.8203 33.6975 30.4834 34.3808 29.9972 34.8879H29.9971Z" fill="#0AACDD"/>
<path fill-rule="evenodd" clip-rule="evenodd" d="M31.0455 27.158C31.3721 26.9651 31.6789 26.7334 31.9597 26.4648C31.4093 25.9404 30.7401 25.5394 29.9971 25.3068C30.4838 25.8153 30.8197 26.4961 31.0455 27.158Z" fill="#0AACDD"/>
<path fill-rule="evenodd" clip-rule="evenodd" d="M31.4978 29.8533H33.5126C33.457 28.6965 33.008 27.6411 32.2965 26.8184C31.9587 27.1408 31.5879 27.4149 31.1907 27.6384C31.3741 28.3213 31.4794 29.0726 31.4978 29.8532L31.4978 29.8533Z" fill="#0AACDD"/>
<path fill-rule="evenodd" clip-rule="evenodd" d="M31.1904 32.5566C31.5876 32.78 31.9584 33.0543 32.2962 33.3767C33.0076 32.554 33.4565 31.4984 33.5123 30.3418H31.4973C31.4793 31.1224 31.374 31.8741 31.1904 32.5566L31.1904 32.5566Z" fill="#0AACDD"/>
<path fill-rule="evenodd" clip-rule="evenodd" d="M25.8088 32.5571C25.6254 31.8742 25.5199 31.1225 25.5019 30.3418H23.4871C23.5427 31.4986 23.9917 32.554 24.7033 33.3767C25.0408 33.0545 25.412 32.7802 25.8088 32.5571L25.8088 32.5571Z" fill="#0AACDD"/>
<path fill-rule="evenodd" clip-rule="evenodd" d="M18 36.0196C18 36.5986 18.471 37.0698 19.0498 37.0698H37.9498C38.5288 37.0698 38.9999 36.5987 38.9999 36.0196V22.9067H18V36.0196ZM28.5 24.59C31.5423 24.59 34.0072 27.0621 34.0072 30.0973C34.0072 33.1324 31.5426 35.6045 28.5 35.6045C25.4632 35.6045 22.9927 33.1339 22.9927 30.0973C22.9929 27.0625 25.4576 24.59 28.4996 24.59H28.5Z" fill="#0AACDD"/>
<path fill-rule="evenodd" clip-rule="evenodd" d="M37.95 19H34.1164V22.4185L39 22.4186V20.05C38.9999 19.4714 38.5289 19.0001 37.9499 19.0001L37.95 19Z" fill="#0AACDD"/>
<path fill-rule="evenodd" clip-rule="evenodd" d="M26.2545 32.3328C26.8785 32.0543 27.5545 31.8939 28.2556 31.8638V30.3418H25.9902C26.0073 31.0433 26.098 31.7174 26.2545 32.3328H26.2545Z" fill="#0AACDD"/>
<path fill-rule="evenodd" clip-rule="evenodd" d="M25.809 27.6386C25.412 27.4152 25.041 27.141 24.7032 26.8186C23.9918 27.6413 23.5427 28.6968 23.4871 29.8535H25.5021C25.5202 29.0729 25.6259 28.3215 25.809 27.6386L25.809 27.6386Z" fill="#0AACDD"/>
<path fill-rule="evenodd" clip-rule="evenodd" d="M25.9906 29.8533H28.256V28.3315C27.5545 28.3012 26.8789 28.1408 26.2549 27.8623C26.0982 28.4775 26.0075 29.152 25.9905 29.8533H25.9906Z" fill="#0AACDD"/>
<path fill-rule="evenodd" clip-rule="evenodd" d="M26.3926 27.3878C26.9717 27.656 27.6013 27.8108 28.2558 27.8422V25.1025C27.2914 25.2953 26.6778 26.5206 26.3926 27.3878V27.3878Z" fill="#0AACDD"/>
<path fill-rule="evenodd" clip-rule="evenodd" d="M27.0026 25.3069C26.2598 25.5395 25.5905 25.9407 25.04 26.4648C25.3211 26.7335 25.6279 26.9651 25.9544 27.1581C26.1803 26.4963 26.5157 25.8152 27.0026 25.3069V25.3069Z" fill="#0AACDD"/>
<defs>
<filter id="filter0_d_2_43" x="0" y="0" width="56" height="56" filterUnits="userSpaceOnUse" color-interpolation-filters="sRGB">
<feFlood flood-opacity="0" result="BackgroundImageFix"/>
<feColorMatrix in="SourceAlpha" type="matrix" values="0 0 0 0 0 0 0 0 0 0 0 0 0 0 0 0 0 0 127 0" result="hardAlpha"/>
<feOffset/>
<feGaussianBlur stdDeviation="4"/>
<feComposite in2="hardAlpha" operator="out"/>
<feColorMatrix type="matrix" values="0 0 0 0 0 0 0 0 0 0 0 0 0 0 0 0 0 0 0.18 0"/>
<feBlend mode="normal" in2="BackgroundImageFix" result="effect1_dropShadow_2_43"/>
<feBlend mode="normal" in="SourceGraphic" in2="effect1_dropShadow_2_43" result="shape"/>
</filter>
</defs>
</svg>
