<svg width="24" height="24" viewBox="0 0 24 24" fill="none" xmlns="http://www.w3.org/2000/svg">
<path d="M17.5 4H18.5C18.6326 4 18.7598 4.05268 18.8536 4.14645C18.9473 4.24021 19 4.36739 19 4.5V11.5C19 11.6326 19.0527 11.7598 19.1464 11.8536C19.2402 11.9473 19.3674 12 19.5 12C19.6326 12 19.7598 11.9473 19.8536 11.8536C19.9473 11.7598 20 11.6326 20 11.5V4.5C20 4.10218 19.842 3.72064 19.5607 3.43934C19.2794 3.15804 18.8978 3 18.5 3H17.5C17.3674 3 17.2402 3.05268 17.1464 3.14645C17.0527 3.24021 17 3.36739 17 3.5C17 3.63261 17.0527 3.75979 17.1464 3.85355C17.2402 3.94732 17.3674 4 17.5 4Z" fill="black" stroke="black"/>
<path d="M7.5 4H15V5.5C15 5.63261 15.0527 5.75979 15.1464 5.85355C15.2402 5.94732 15.3674 6 15.5 6C15.6326 6 15.7598 5.94732 15.8536 5.85355C15.9473 5.75979 16 5.63261 16 5.5V1.5C16 1.36739 15.9473 1.24021 15.8536 1.14645C15.7598 1.05268 15.6326 1 15.5 1C15.3674 1 15.2402 1.05268 15.1464 1.14645C15.0527 1.24021 15 1.36739 15 1.5V3H7.5C7.36739 3 7.24021 3.05268 7.14645 3.14645C7.05268 3.24021 7 3.36739 7 3.5C7 3.63261 7.05268 3.75979 7.14645 3.85355C7.24021 3.94732 7.36739 4 7.5 4Z" fill="black" stroke="black"/>
<path d="M11.5 19H2.5C2.36739 19 2.24021 18.9473 2.14645 18.8536C2.05268 18.7598 2 18.6326 2 18.5V4.5C2 4.36739 2.05268 4.24021 2.14645 4.14645C2.24021 4.05268 2.36739 4 2.5 4H5V5.5C5 5.63261 5.05268 5.75979 5.14645 5.85355C5.24021 5.94732 5.36739 6 5.5 6C5.63261 6 5.75979 5.94732 5.85355 5.85355C5.94732 5.75979 6 5.63261 6 5.5V1.5C6 1.36739 5.94732 1.24021 5.85355 1.14645C5.75979 1.05268 5.63261 1 5.5 1C5.36739 1 5.24021 1.05268 5.14645 1.14645C5.05268 1.24021 5 1.36739 5 1.5V3H2.5C2.10218 3 1.72064 3.15804 1.43934 3.43934C1.15804 3.72064 1 4.10218 1 4.5V18.5C1 18.8978 1.15804 19.2794 1.43934 19.5607C1.72064 19.842 2.10218 20 2.5 20H11.5C11.6326 20 11.7598 19.9473 11.8536 19.8536C11.9473 19.7598 12 19.6326 12 19.5C12 19.3674 11.9473 19.2402 11.8536 19.1464C11.7598 19.0527 11.6326 19 11.5 19Z" fill="black" stroke="black"/>
<path d="M15.5 9H5.5C5.36739 9 5.24021 9.05268 5.14645 9.14645C5.05268 9.24021 5 9.36739 5 9.5C5 9.63261 5.05268 9.75979 5.14645 9.85355C5.24021 9.94732 5.36739 10 5.5 10H15.5C15.6326 10 15.7598 9.94732 15.8536 9.85355C15.9473 9.75979 16 9.63261 16 9.5C16 9.36739 15.9473 9.24021 15.8536 9.14645C15.7598 9.05268 15.6326 9 15.5 9Z" fill="black" stroke="black"/>
<path d="M11.5 13H5.5C5.36739 13 5.24021 13.0527 5.14645 13.1464C5.05268 13.2402 5 13.3674 5 13.5C5 13.6326 5.05268 13.7598 5.14645 13.8536C5.24021 13.9473 5.36739 14 5.5 14H11.5C11.6326 14 11.7598 13.9473 11.8536 13.8536C11.9473 13.7598 12 13.6326 12 13.5C12 13.3674 11.9473 13.2402 11.8536 13.1464C11.7598 13.0527 11.6326 13 11.5 13Z" fill="black" stroke="black"/>
<path d="M18 13C17.0111 13 16.0444 13.2932 15.2222 13.8427C14.3999 14.3921 13.759 15.173 13.3806 16.0866C13.0022 17.0002 12.9031 18.0055 13.0961 18.9755C13.289 19.9454 13.7652 20.8363 14.4645 21.5355C15.1637 22.2348 16.0546 22.711 17.0246 22.9039C17.9945 23.0969 18.9998 22.9978 19.9134 22.6194C20.8271 22.241 21.6079 21.6001 22.1574 20.7779C22.7068 19.9556 23 18.9889 23 18C23 17.3434 22.8707 16.6932 22.6194 16.0866C22.3681 15.48 21.9998 14.9288 21.5355 14.4645C21.0712 14.0002 20.52 13.6319 19.9134 13.3806C19.3068 13.1293 18.6566 13 18 13ZM18 22C17.2089 22 16.4355 21.7654 15.7777 21.3259C15.1199 20.8864 14.6072 20.2616 14.3045 19.5307C14.0017 18.7998 13.9225 17.9956 14.0769 17.2196C14.2312 16.4437 14.6122 15.731 15.1716 15.1716C15.731 14.6122 16.4437 14.2312 17.2196 14.0769C17.9956 13.9225 18.7998 14.0017 19.5307 14.3045C20.2616 14.6072 20.8864 15.1199 21.3259 15.7777C21.7654 16.4355 22 17.2089 22 18C22 19.0609 21.5786 20.0783 20.8284 20.8284C20.0783 21.5786 19.0609 22 18 22Z" fill="black" stroke="black"/>
<path d="M17.4336 17.9741L18.8536 16.2241H18.8336C18.8721 16.1658 18.9225 16.1162 18.9815 16.0786C19.0404 16.0409 19.1066 16.0161 19.1757 16.0056C19.2448 15.9952 19.3154 15.9993 19.3828 16.0178C19.4502 16.0363 19.513 16.0687 19.5671 16.113C19.6213 16.1573 19.6655 16.2124 19.697 16.2749C19.7285 16.3373 19.7465 16.4056 19.7499 16.4755C19.7534 16.5453 19.7421 16.6151 19.7169 16.6803C19.6917 16.7455 19.6531 16.8047 19.6036 16.8541L17.8236 19.0441C17.7801 19.1015 17.7242 19.1484 17.6602 19.1812C17.5962 19.2141 17.5255 19.2322 17.4536 19.2341C17.3858 19.2332 17.319 19.2185 17.2571 19.191C17.1952 19.1635 17.1396 19.1237 17.0936 19.0741C16.8216 18.7761 17.2069 18.2166 17.4336 17.9741Z" fill="black" stroke="black"/>
</svg>
