<svg width="22" height="22" viewBox="0 0 22 22" fill="none" xmlns="http://www.w3.org/2000/svg">
<path d="M1.2776 9.11158L9.05893 13.2941L13.2371 21.071C13.3292 21.2422 13.5092 21.3475 13.7023 21.3475C13.7154 21.3475 13.7286 21.3475 13.7374 21.3475C13.9437 21.3344 14.1236 21.1983 14.1938 21.0052L21.3168 1.70768C21.3871 1.51457 21.3388 1.29952 21.1939 1.15469C21.0491 1.00986 20.8341 0.961584 20.641 1.0318L1.34343 8.15043C1.15032 8.22065 1.01427 8.40059 1.0011 8.60686C0.987938 8.81314 1.09327 9.01063 1.2776 9.11158ZM13.6145 19.5437L10.0991 12.9957L19.4999 3.59486L13.6145 19.5437ZM18.7538 2.84877L9.35298 12.254L2.8049 8.73414L18.7538 2.84877Z" fill="black" stroke="black" stroke-width="1.1"/>
</svg>
