<svg width="142" height="56" viewBox="0 0 142 56" fill="none" xmlns="http://www.w3.org/2000/svg">
<path d="M18 11H125C134.389 11 142 18.6112 142 28V28C142 37.3888 134.389 45 125 45H18V11Z" fill="#0AACDD"/>
<g filter="url(#filter0_d_2_37)">
<circle cx="28" cy="28" r="20" fill="white"/>
</g>
<path fill-rule="evenodd" clip-rule="evenodd" d="M35.3682 24.4973C38.1349 24.9705 40.2831 27.3733 40.2831 30.2856V30.9773C40.2831 34.2175 37.6253 36.8753 34.3851 36.8753H31.1086V31.6691H33.8754L28.1234 23.4414L25.2837 27.5553L22.4077 31.6692H25.1381V36.8754H21.8979C18.6577 36.8754 16 34.2176 16 30.9774V30.2857C16 27.3733 18.1479 24.9706 20.9149 24.4974C21.6794 21.3301 24.519 19 27.9048 19H28.378C31.7638 19 34.6035 21.3299 35.3678 24.4974L35.3682 24.4973Z" fill="#0AACDD"/>
<path d="M58.938 29.262C58.938 31.838 60.702 33.098 62.844 33.098C64.986 33.098 66.834 31.838 66.834 29.262V23.228H64.86V29.276C64.86 30.62 64.132 31.32 62.872 31.32C61.626 31.32 60.898 30.62 60.898 29.276V23.228H58.938V29.262ZM70.6877 26.364V25.244H68.7277V36.696H70.6877V31.894C71.1637 32.524 72.0317 33.126 73.2497 33.126C75.2377 33.126 76.7917 31.516 76.7917 29.094C76.7917 26.672 75.2377 25.118 73.2497 25.118C72.0457 25.118 71.1497 25.706 70.6877 26.364ZM74.7897 29.094C74.7897 30.564 73.7957 31.404 72.7317 31.404C71.6817 31.404 70.6877 30.592 70.6877 29.122C70.6877 27.652 71.6817 26.84 72.7317 26.84C73.7957 26.84 74.7897 27.624 74.7897 29.094ZM77.712 29.094C77.712 31.516 79.28 33.126 81.254 33.126C82.472 33.126 83.354 32.524 83.816 31.852V33.056C83.816 34.498 82.976 35.114 81.898 35.114C80.918 35.114 80.19 34.652 79.994 33.952H78.048C78.244 35.73 79.77 36.822 81.954 36.822C84.502 36.822 85.79 35.156 85.79 33.056V25.244H83.816V26.35C83.354 25.678 82.472 25.118 81.254 25.118C79.28 25.118 77.712 26.672 77.712 29.094ZM83.816 29.122C83.816 30.592 82.836 31.404 81.758 31.404C80.708 31.404 79.714 30.564 79.714 29.094C79.714 27.624 80.708 26.84 81.758 26.84C82.836 26.84 83.816 27.652 83.816 29.122ZM89.6643 29.136C89.6643 27.638 90.3643 27.19 91.5263 27.19H92.0443V25.132C90.9663 25.132 90.1543 25.65 89.6643 26.448V25.244H87.7043V33H89.6643V29.136ZM92.8604 29.094C92.8604 31.516 94.4284 33.126 96.3884 33.126C97.6204 33.126 98.5024 32.538 98.9644 31.866V33H100.938V25.244H98.9644V26.35C98.5024 25.706 97.6484 25.118 96.4024 25.118C94.4284 25.118 92.8604 26.672 92.8604 29.094ZM98.9644 29.122C98.9644 30.592 97.9844 31.404 96.9064 31.404C95.8564 31.404 94.8624 30.564 94.8624 29.094C94.8624 27.624 95.8564 26.84 96.9064 26.84C97.9844 26.84 98.9644 27.652 98.9644 29.122ZM102.349 29.094C102.349 31.516 103.917 33.126 105.891 33.126C107.109 33.126 107.977 32.566 108.439 31.852V33H110.427V22.64H108.439V26.322C107.907 25.594 106.927 25.118 105.905 25.118C103.917 25.118 102.349 26.672 102.349 29.094ZM108.453 29.122C108.453 30.592 107.473 31.404 106.395 31.404C105.345 31.404 104.351 30.564 104.351 29.094C104.351 27.624 105.345 26.84 106.395 26.84C107.473 26.84 108.453 27.652 108.453 29.122ZM115.673 26.728C116.681 26.728 117.493 27.372 117.521 28.394H113.839C113.993 27.33 114.735 26.728 115.673 26.728ZM119.355 30.564H117.241C116.989 31.082 116.527 31.502 115.687 31.502C114.707 31.502 113.923 30.858 113.825 29.71H119.495C119.537 29.458 119.551 29.206 119.551 28.954C119.551 26.644 117.969 25.118 115.729 25.118C113.433 25.118 111.837 26.672 111.837 29.122C111.837 31.558 113.475 33.126 115.729 33.126C117.647 33.126 118.935 31.992 119.355 30.564Z" fill="white"/>
<defs>
<filter id="filter0_d_2_37" x="0" y="0" width="56" height="56" filterUnits="userSpaceOnUse" color-interpolation-filters="sRGB">
<feFlood flood-opacity="0" result="BackgroundImageFix"/>
<feColorMatrix in="SourceAlpha" type="matrix" values="0 0 0 0 0 0 0 0 0 0 0 0 0 0 0 0 0 0 127 0" result="hardAlpha"/>
<feOffset/>
<feGaussianBlur stdDeviation="4"/>
<feComposite in2="hardAlpha" operator="out"/>
<feColorMatrix type="matrix" values="0 0 0 0 0 0 0 0 0 0 0 0 0 0 0 0 0 0 0.18 0"/>
<feBlend mode="normal" in2="BackgroundImageFix" result="effect1_dropShadow_2_37"/>
<feBlend mode="normal" in="SourceGraphic" in2="effect1_dropShadow_2_37" result="shape"/>
</filter>
</defs>
</svg>
