<svg width="107" height="55" viewBox="0 0 107 55" fill="none" xmlns="http://www.w3.org/2000/svg">
<path d="M7.69913 54.3856C7.59148 54.3856 7.52151 54.3317 7.48921 54.2241L6.95635 52.4963C6.93482 52.4532 6.9079 52.4317 6.87561 52.4317H2.61267C2.58037 52.4317 2.55346 52.4532 2.53193 52.4963L1.99906 54.2241C1.96677 54.3317 1.89679 54.3856 1.78914 54.3856H0.174393C0.109803 54.3856 0.0613605 54.3694 0.0290655 54.3371C-0.00322951 54.2941 -0.008612 54.2348 0.012918 54.1595L3.51693 43.2438C3.54922 43.1361 3.61919 43.0823 3.72684 43.0823H5.74528C5.85293 43.0823 5.92291 43.1361 5.9552 43.2438L9.47536 54.1595C9.48612 54.181 9.49151 54.2079 9.49151 54.2402C9.49151 54.3371 9.4323 54.3856 9.31388 54.3856H7.69913ZM3.0325 50.8654C3.02174 50.93 3.04327 50.9623 3.09709 50.9623H6.37504C6.43963 50.9623 6.46116 50.93 6.43963 50.8654L4.77643 45.456C4.76567 45.4129 4.74952 45.3914 4.72799 45.3914C4.70646 45.3914 4.69031 45.4129 4.67955 45.456L3.0325 50.8654Z" fill="#32315C"/>
<path d="M20.8805 43.0823C20.9344 43.0823 20.9774 43.1038 21.0097 43.1469C21.0528 43.1792 21.0743 43.2222 21.0743 43.2761V44.5194C21.0743 44.5733 21.0528 44.6217 21.0097 44.6648C20.9774 44.6971 20.9344 44.7132 20.8805 44.7132H17.9094C17.8556 44.7132 17.8287 44.7401 17.8287 44.7939V54.1918C17.8287 54.2456 17.8071 54.2941 17.7641 54.3371C17.7318 54.3694 17.6887 54.3856 17.6349 54.3856H16.1493C16.0955 54.3856 16.0471 54.3694 16.004 54.3371C15.9717 54.2941 15.9556 54.2456 15.9556 54.1918V44.7939C15.9556 44.7401 15.9286 44.7132 15.8748 44.7132H13.0167C12.9629 44.7132 12.9144 44.6971 12.8714 44.6648C12.8391 44.6217 12.8229 44.5733 12.8229 44.5194V43.2761C12.8229 43.2222 12.8391 43.1792 12.8714 43.1469C12.9144 43.1038 12.9629 43.0823 13.0167 43.0823H20.8805Z" fill="#32315C"/>
<path d="M29.6155 54.547C28.8081 54.547 28.0922 54.3856 27.4678 54.0626C26.8435 53.7289 26.359 53.2606 26.0146 52.6578C25.6809 52.0549 25.514 51.3606 25.514 50.5747V46.8931C25.514 46.118 25.6862 45.4345 26.0307 44.8424C26.3752 44.2395 26.8542 43.7766 27.4678 43.4537C28.0922 43.12 28.8081 42.9531 29.6155 42.9531C30.4336 42.9531 31.1495 43.12 31.7631 43.4537C32.3875 43.7766 32.8719 44.2395 33.2164 44.8424C33.5608 45.4345 33.7331 46.118 33.7331 46.8931V50.5747C33.7331 51.3606 33.5608 52.0549 33.2164 52.6578C32.8719 53.2606 32.3875 53.7289 31.7631 54.0626C31.1495 54.3856 30.4336 54.547 29.6155 54.547ZM29.6155 52.9323C30.2937 52.9323 30.8373 52.7224 31.2464 52.3025C31.6554 51.8827 31.86 51.3283 31.86 50.6393V46.877C31.86 46.1772 31.6554 45.6175 31.2464 45.1976C30.8373 44.7778 30.2937 44.5679 29.6155 44.5679C28.948 44.5679 28.4098 44.7778 28.0007 45.1976C27.5916 45.6175 27.3871 46.1772 27.3871 46.877V50.6393C27.3871 51.3283 27.5916 51.8827 28.0007 52.3025C28.4098 52.7224 28.948 52.9323 29.6155 52.9323Z" fill="#32315C"/>
<path d="M38.9825 54.3856C38.9287 54.3856 38.8803 54.3694 38.8372 54.3371C38.8049 54.2941 38.7888 54.2456 38.7888 54.1918V52.8193C38.7888 52.7439 38.8157 52.6632 38.8695 52.577L44.3112 44.7939C44.3327 44.7724 44.3381 44.7509 44.3274 44.7294C44.3166 44.7078 44.2951 44.6971 44.2628 44.6971H38.9825C38.9287 44.6971 38.8803 44.6809 38.8372 44.6486C38.8049 44.6056 38.7888 44.5571 38.7888 44.5033V43.2761C38.7888 43.2222 38.8049 43.1792 38.8372 43.1469C38.8803 43.1038 38.9287 43.0823 38.9825 43.0823H46.2489C46.3027 43.0823 46.3458 43.1038 46.3781 43.1469C46.4212 43.1792 46.4427 43.2222 46.4427 43.2761V44.6486C46.4427 44.724 46.4158 44.8047 46.3619 44.8908L40.9202 52.6739C40.8987 52.6955 40.8933 52.717 40.9041 52.7385C40.9148 52.76 40.9364 52.7708 40.9687 52.7708H46.2489C46.3027 52.7708 46.3458 52.7923 46.3781 52.8354C46.4212 52.8677 46.4427 52.9108 46.4427 52.9646V54.1918C46.4427 54.2456 46.4212 54.2941 46.3781 54.3371C46.3458 54.3694 46.3027 54.3856 46.2489 54.3856H38.9825Z" fill="#32315C"/>
<path d="M62.4272 54.5147C61.6198 54.5147 60.9093 54.3586 60.2957 54.0465C59.6821 53.7235 59.2085 53.2768 58.8748 52.7062C58.541 52.1357 58.3742 51.4736 58.3742 50.7201V46.7316C58.3742 45.9781 58.541 45.316 58.8748 44.7455C59.2085 44.175 59.6821 43.7336 60.2957 43.4214C60.9093 43.1092 61.6198 42.9531 62.4272 42.9531C63.2238 42.9531 63.9289 43.1038 64.5425 43.4053C65.1561 43.7067 65.6298 44.1319 65.9635 44.6809C66.2972 45.2299 66.4641 45.8651 66.4641 46.5863C66.4641 46.6401 66.4426 46.6886 66.3995 46.7316C66.3672 46.7639 66.3241 46.7801 66.2703 46.7801L64.7847 46.8608C64.6556 46.8608 64.591 46.8016 64.591 46.6832C64.591 46.0481 64.3918 45.5367 63.9935 45.1492C63.606 44.7616 63.0839 44.5679 62.4272 44.5679C61.7705 44.5679 61.243 44.7616 60.8447 45.1492C60.4464 45.5367 60.2473 46.0481 60.2473 46.6832V50.8008C60.2473 51.4252 60.4464 51.9311 60.8447 52.3187C61.243 52.7062 61.7705 52.9 62.4272 52.9C63.0839 52.9 63.606 52.7116 63.9935 52.3348C64.3918 51.9473 64.591 51.4359 64.591 50.8008C64.591 50.6824 64.6556 50.6232 64.7847 50.6232L66.2703 50.6878C66.3241 50.6878 66.3672 50.7039 66.3995 50.7362C66.4426 50.7685 66.4641 50.8062 66.4641 50.8493C66.4641 51.5813 66.2972 52.2272 65.9635 52.787C65.6298 53.336 65.1561 53.7612 64.5425 54.0626C63.9289 54.364 63.2238 54.5147 62.4272 54.5147Z" fill="#32315C"/>
<path d="M78.8756 54.3856C78.7679 54.3856 78.698 54.3317 78.6657 54.2241L78.1328 52.4963C78.1113 52.4532 78.0844 52.4317 78.0521 52.4317H73.7891C73.7568 52.4317 73.7299 52.4532 73.7084 52.4963L73.1755 54.2241C73.1432 54.3317 73.0732 54.3856 72.9656 54.3856H71.3508C71.2863 54.3856 71.2378 54.3694 71.2055 54.3371C71.1732 54.2941 71.1678 54.2348 71.1894 54.1595L74.6934 43.2438C74.7257 43.1361 74.7956 43.0823 74.9033 43.0823H76.9217C77.0294 43.0823 77.0994 43.1361 77.1317 43.2438L80.6518 54.1595C80.6626 54.181 80.668 54.2079 80.668 54.2402C80.668 54.3371 80.6087 54.3856 80.4903 54.3856H78.8756ZM74.2089 50.8654C74.1982 50.93 74.2197 50.9623 74.2735 50.9623H77.5515C77.6161 50.9623 77.6376 50.93 77.6161 50.8654L75.9529 45.456C75.9421 45.4129 75.926 45.3914 75.9044 45.3914C75.8829 45.3914 75.8668 45.4129 75.856 45.456L74.2089 50.8654Z" fill="#32315C"/>
<path d="M92.2366 54.3856C92.129 54.3856 92.0536 54.3371 92.0106 54.2402L89.8791 49.5897C89.8576 49.5467 89.8253 49.5252 89.7822 49.5252H87.8445C87.7907 49.5252 87.7638 49.5521 87.7638 49.6059V54.1918C87.7638 54.2456 87.7422 54.2941 87.6992 54.3371C87.6669 54.3694 87.6238 54.3856 87.57 54.3856H86.0844C86.0306 54.3856 85.9822 54.3694 85.9391 54.3371C85.9068 54.2941 85.8907 54.2456 85.8907 54.1918V43.2761C85.8907 43.2222 85.9068 43.1792 85.9391 43.1469C85.9822 43.1038 86.0306 43.0823 86.0844 43.0823H90.525C91.1817 43.0823 91.763 43.2222 92.2689 43.5021C92.7749 43.7713 93.1678 44.1588 93.4477 44.6648C93.7276 45.16 93.8675 45.7305 93.8675 46.3764C93.8675 47.1192 93.6738 47.7543 93.2862 48.2818C92.9094 48.7985 92.382 49.1592 91.7038 49.3637C91.6822 49.3637 91.6661 49.3745 91.6553 49.396C91.6446 49.4175 91.6446 49.439 91.6553 49.4606L93.9321 54.1595C93.9536 54.2026 93.9644 54.2348 93.9644 54.2564C93.9644 54.3425 93.9052 54.3856 93.7868 54.3856H92.2366ZM87.8445 44.6971C87.7907 44.6971 87.7638 44.724 87.7638 44.7778V47.9911C87.7638 48.045 87.7907 48.0719 87.8445 48.0719H90.2666C90.7834 48.0719 91.1978 47.9212 91.51 47.6198C91.8329 47.3076 91.9944 46.8985 91.9944 46.3925C91.9944 45.8866 91.8329 45.4775 91.51 45.1653C91.1978 44.8531 90.7834 44.6971 90.2666 44.6971H87.8445Z" fill="#32315C"/>
<path d="M102.995 54.5147C102.156 54.5147 101.424 54.3802 100.799 54.1111C100.175 53.8419 99.6906 53.4652 99.3461 52.9807C99.0124 52.4963 98.8455 51.9258 98.8455 51.2691V50.8654C98.8455 50.8116 98.8616 50.7685 98.8939 50.7362C98.937 50.6932 98.9855 50.6716 99.0393 50.6716H100.476C100.53 50.6716 100.573 50.6932 100.606 50.7362C100.649 50.7685 100.67 50.8116 100.67 50.8654V51.1722C100.67 51.6674 100.891 52.0818 101.332 52.4156C101.774 52.7385 102.376 52.9 103.141 52.9C103.797 52.9 104.293 52.76 104.626 52.4802C104.96 52.2003 105.127 51.8396 105.127 51.3983C105.127 51.0969 105.035 50.8439 104.852 50.6393C104.669 50.424 104.406 50.2303 104.061 50.058C103.727 49.8858 103.221 49.6705 102.543 49.4121C101.779 49.1322 101.16 48.8685 100.686 48.6209C100.213 48.3733 99.8144 48.0396 99.4914 47.6198C99.1792 47.1892 99.0231 46.6563 99.0231 46.0212C99.0231 45.0738 99.3676 44.3257 100.057 43.7766C100.746 43.2276 101.666 42.9531 102.818 42.9531C103.625 42.9531 104.336 43.0931 104.949 43.373C105.574 43.6528 106.058 44.0458 106.403 44.5517C106.747 45.0469 106.919 45.6228 106.919 46.2795V46.554C106.919 46.6078 106.898 46.6563 106.855 46.6993C106.822 46.7316 106.779 46.7478 106.725 46.7478H105.272C105.218 46.7478 105.17 46.7316 105.127 46.6993C105.095 46.6563 105.078 46.6078 105.078 46.554V46.3764C105.078 45.8704 104.869 45.4452 104.449 45.1007C104.04 44.7455 103.469 44.5679 102.737 44.5679C102.145 44.5679 101.682 44.6917 101.348 44.9393C101.025 45.1869 100.864 45.5367 100.864 45.9889C100.864 46.3118 100.95 46.5755 101.122 46.7801C101.295 46.9846 101.553 47.173 101.897 47.3452C102.242 47.5067 102.775 47.7166 103.496 47.975C104.26 48.2657 104.869 48.5294 105.321 48.7662C105.784 49.0031 106.176 49.3368 106.499 49.7674C106.833 50.1872 107 50.7147 107 51.3498C107 52.3187 106.639 53.0884 105.918 53.6589C105.208 54.2295 104.233 54.5147 102.995 54.5147Z" fill="#32315C"/>
<path d="M42.5688 6.78986C43.7657 6.78986 76.3731 6.78986 76.3731 6.78986C76.3731 6.78986 75.5752 5.40683 73.5273 3.62486C71.4794 1.84288 69.9367 1.25776 65.7079 0.53965C61.1333 -0.231652 45.7338 -0.0188794 43.5263 0.22049C41.6645 0.433263 41.1592 0.991792 40.9464 1.31095C40.5475 1.92267 40.5475 2.5344 40.6539 3.38549C40.7337 3.99721 40.8932 4.68872 41.0262 5.27385C41.372 6.73666 42.1699 6.78986 42.5688 6.78986Z" fill="#32315C"/>
<path d="M79.0857 7.77396C79.7507 7.77396 82.4103 7.16223 83.022 6.44413C83.6338 5.69942 82.5433 4.90152 81.7454 4.50257C80.9475 4.10362 79.5911 3.35892 78.3942 3.97064C78.3942 3.97064 78.2081 3.97064 77.9953 4.90152C77.8357 5.8324 78.4208 7.77396 79.0857 7.77396Z" fill="#32315C"/>
<path d="M25.1746 10.0877C26.3448 10.593 36.2388 6.86948 36.2388 6.86948C36.2388 6.86948 37.4356 6.52372 38.1803 4.87473C38.7388 3.62469 39.5101 1.9491 38.8984 1.231C38.7654 1.09801 38.3931 0.725659 37.3026 1.12461C35.5206 1.76293 31.8769 3.17255 28.18 6.17797C25.7065 8.19931 24.0043 9.58234 25.1746 10.0877Z" fill="#32315C"/>
<path d="M23.2099 9.07613C23.2365 9.47508 24.9919 6.1239 29.9389 3.19827C30.6304 2.77273 28.1835 3.14508 25.8696 3.7568C24.6728 4.07596 22.1993 4.60789 21.9599 5.43239C21.7471 6.20369 22.3323 6.9218 22.545 7.24096C22.7844 7.63991 23.1567 8.35802 23.2099 9.07613Z" fill="#32315C"/>
<path d="M86.0029 29.9831C87.1465 29.8235 87.4657 28.1745 87.5455 27.9883C88.6625 27.9883 88.8487 27.9883 89.3008 27.9883C90.0987 27.9883 90.0189 26.4457 90.1519 23.3073C90.2051 21.8711 90.4179 20.1423 90.2583 17.0039C90.0721 13.2538 87.4125 9.61005 85.2848 9.55685C82.0932 9.50366 80.3644 10.3282 79.0079 13.6527C79.5399 13.6261 86.322 13.6527 86.9603 14.2911C87.5987 14.9294 87.5987 16.6581 87.5987 16.6581C87.5987 16.6581 80.4442 16.472 78.2632 16.605C77.8377 19.4508 77.5983 22.2168 73.2631 22.7222C66.4543 23.5201 59.752 23.2541 57.5445 19.4774C57.1455 18.8125 56.587 17.855 55.7093 16.7645C51.9592 16.7379 45.4164 16.8709 45.0707 16.8709C44.6185 16.8709 44.3791 15.8868 44.2728 15.1953C44.0866 14.0783 44.6717 14.2379 52.6773 13.7591C50.7091 12.1899 47.9963 10.6207 44.2994 9.39727C35.2831 6.44505 33.1022 8.36001 31.7457 11.3122C30.6819 13.6527 30.5489 16.0996 30.7085 18.9987C30.7351 19.504 30.7085 21.2062 30.7085 21.3658C28.6871 21.286 25.2828 21.5785 25.0966 17.8284C24.9104 14.0251 25.5221 12.8282 25.5221 12.5889C25.5221 12.3495 22.6497 12.2963 23.3412 10.6207C24.0061 8.94513 20.389 10.8335 19.5645 11.4186C19.0858 11.5782 18.4474 12.1633 18.2347 13.0942C18.1815 13.3602 18.1283 13.9453 18.1017 14.7698C17.1176 15.5145 16.3995 18.5731 16.3995 22.27C16.3995 24.9031 16.7719 27.217 17.3304 28.6C17.49 28.999 17.9687 29.8501 18.3676 30.0894C12.7824 30.3288 9.48438 30.648 9.48438 30.9671C9.48438 31.7916 29.1925 32.4565 53.5018 32.4565C77.8111 32.4565 97.5192 31.7916 97.5192 30.9671C97.4926 30.5948 93.1574 30.249 86.0029 29.9831ZM34.0065 13.7059C34.9639 13.7059 35.7352 16.7911 35.7352 20.5945C35.7352 24.3978 34.9639 27.483 34.0065 27.483C33.049 27.483 32.2777 24.3978 32.2777 20.5945C32.2777 16.7911 33.049 13.7059 34.0065 13.7059ZM17.6761 22.27C17.6761 18.9987 18.3411 16.339 19.1655 16.339C19.99 16.339 20.655 18.9987 20.655 22.27C20.655 25.5414 19.99 28.2011 19.1655 28.2011C18.3411 28.2011 17.6761 25.5414 17.6761 22.27ZM26.985 27.483C28.6073 27.5628 30.2563 27.616 31.6926 27.6426C32.0117 28.5734 32.4107 29.2649 32.8628 29.6639C30.3627 29.7171 27.969 29.7703 25.7881 29.8235C26.2402 29.5309 26.6658 28.6798 26.985 27.483ZM40.7354 29.5575C40.9482 29.3181 41.1344 28.9458 41.3205 28.4936C45.4164 28.467 65.3373 28.2543 78.1834 28.0947C78.5026 28.8926 78.9016 29.4777 79.3271 29.7703C72.0662 29.5841 63.1298 29.4777 53.4752 29.4777C49.0601 29.5043 44.7781 29.5043 40.7354 29.5575Z" fill="#32315C"/>
</svg>
