<svg width="35" height="35" viewBox="0 0 35 35" fill="none" xmlns="http://www.w3.org/2000/svg">
<rect width="35" height="35" rx="6" fill="#FF5400"/>
<path d="M21.8885 21.8882L20.9391 22.8272C20.2393 23.5134 19.3315 24.3964 18.215 25.4762C17.8794 25.8006 17.4308 25.982 16.964 25.982C16.4972 25.982 16.0487 25.8006 15.7131 25.4762L12.9209 22.76C12.5698 22.4153 12.2763 22.1249 12.0395 21.8882C11.0657 20.9142 10.4024 19.6733 10.1338 18.3225C9.86511 16.9716 10.0031 15.5714 10.5302 14.2989C11.0573 13.0264 11.9499 11.9388 13.0951 11.1736C14.2403 10.4084 15.5867 10 16.964 10C18.3414 10 19.6878 10.4084 20.833 11.1736C21.9782 11.9388 22.8708 13.0264 23.3979 14.2989C23.925 15.5714 24.063 16.9716 23.7943 18.3225C23.5256 19.6733 22.8624 20.9142 21.8885 21.8882ZM18.9636 17.1836C18.9636 16.6533 18.7529 16.1447 18.3779 15.7697C18.0029 15.3947 17.4944 15.1841 16.964 15.1841C16.4337 15.1841 15.9251 15.3947 15.5501 15.7697C15.1752 16.1447 14.9645 16.6533 14.9645 17.1836C14.9645 17.7139 15.1752 18.2225 15.5501 18.5975C15.9251 18.9725 16.4337 19.1832 16.964 19.1832C17.4944 19.1832 18.0029 18.9725 18.3779 18.5975C18.7529 18.2225 18.9636 17.7139 18.9636 17.1836Z" fill="white"/>
</svg>
