<svg width="36" height="35" viewBox="0 0 36 35" fill="none" xmlns="http://www.w3.org/2000/svg">
<rect x="0.500977" width="35" height="35" rx="6" fill="#55ACEE"/>
<g clip-path="url(#clip0)">
<path d="M22.1699 10H14.832C12.4438 10 10.501 11.9429 10.501 14.331V21.669C10.501 24.0571 12.4438 26 14.832 26H22.17C24.5581 26 26.5009 24.0571 26.5009 21.669V14.331C26.5009 11.9429 24.5581 10 22.1699 10V10ZM25.563 21.669C25.563 23.5399 24.0409 25.062 22.1699 25.062H14.832C12.9611 25.062 11.439 23.5399 11.439 21.669V14.331C11.439 12.4601 12.9611 10.938 14.832 10.938H22.17C24.0409 10.938 25.563 12.4601 25.563 14.331V21.669Z" fill="white"/>
<path d="M18.5008 13.625C16.0885 13.625 14.126 15.5875 14.126 17.9999C14.126 20.4122 16.0885 22.3747 18.5008 22.3747C20.9132 22.3747 22.8757 20.4122 22.8757 17.9999C22.8757 15.5875 20.9132 13.625 18.5008 13.625ZM18.5008 21.4368C16.6058 21.4368 15.064 19.895 15.064 17.9999C15.064 16.1049 16.6058 14.563 18.5008 14.563C20.396 14.563 21.9377 16.1049 21.9377 17.9999C21.9377 19.895 20.396 21.4368 18.5008 21.4368Z" fill="white"/>
<path d="M22.9802 12.0703C22.2673 12.0703 21.6875 12.6503 21.6875 13.363C21.6875 14.0759 22.2673 14.6559 22.9802 14.6559C23.6931 14.6559 24.2731 14.0759 24.2731 13.363C24.2731 12.6501 23.6931 12.0703 22.9802 12.0703ZM22.9802 13.7178C22.7847 13.7178 22.6255 13.5586 22.6255 13.363C22.6255 13.1674 22.7847 13.0083 22.9802 13.0083C23.1759 13.0083 23.3351 13.1674 23.3351 13.363C23.3351 13.5586 23.1759 13.7178 22.9802 13.7178Z" fill="white"/>
</g>
<defs>
<clipPath id="clip0">
<rect width="16" height="16" fill="white" transform="translate(10.501 10)"/>
</clipPath>
</defs>
</svg>
