<svg width="15" height="14" viewBox="0 0 15 14" fill="none" xmlns="http://www.w3.org/2000/svg">
<path d="M14.3393 0.169878C14.2605 0.0915247 14.1609 0.0372759 14.0523 0.0135098C13.9437 -0.0102562 13.8305 -0.00255142 13.7261 0.0357183L0.877869 4.70215C0.767064 4.74412 0.671667 4.81878 0.604348 4.91619C0.53703 5.0136 0.500977 5.12917 0.500977 5.24753C0.500977 5.3659 0.53703 5.48146 0.604348 5.57888C0.671667 5.67629 0.767064 5.75094 0.877869 5.79292L5.89452 7.79365L9.59715 4.08384L10.4206 4.9063L6.70046 8.62194L8.70946 13.6325C8.75273 13.7411 8.82764 13.8341 8.92448 13.8996C9.02132 13.9651 9.13562 14.0001 9.25259 14C9.37061 13.9976 9.48512 13.9595 9.58104 13.8908C9.67695 13.822 9.74977 13.7259 9.78988 13.615L14.462 0.782347C14.5018 0.679147 14.5113 0.566775 14.4896 0.458335C14.4679 0.349895 14.4158 0.249855 14.3393 0.169878Z" fill="white"/>
</svg>
