<svg width="36" height="35" viewBox="0 0 36 35" fill="none" xmlns="http://www.w3.org/2000/svg">
<rect x="0.500977" width="35" height="35" rx="6" fill="#D71E18"/>
<g clip-path="url(#clip0)">
<path d="M26.501 13.039C25.906 13.3 25.272 13.473 24.611 13.557C25.291 13.151 25.81 12.513 26.054 11.744C25.42 12.122 24.72 12.389 23.974 12.538C23.372 11.897 22.514 11.5 21.578 11.5C19.762 11.5 18.3 12.974 18.3 14.781C18.3 15.041 18.322 15.291 18.376 15.529C15.649 15.396 13.236 14.089 11.615 12.098C11.332 12.589 11.166 13.151 11.166 13.756C11.166 14.892 11.751 15.899 12.623 16.482C12.096 16.472 11.579 16.319 11.141 16.078C11.141 16.088 11.141 16.101 11.141 16.114C11.141 17.708 12.278 19.032 13.769 19.337C13.502 19.41 13.211 19.445 12.909 19.445C12.699 19.445 12.487 19.433 12.288 19.389C12.713 20.688 13.919 21.643 15.353 21.674C14.237 22.547 12.82 23.073 11.286 23.073C11.017 23.073 10.759 23.061 10.501 23.028C11.954 23.965 13.676 24.5 15.533 24.5C21.569 24.5 24.869 19.5 24.869 15.166C24.869 15.021 24.864 14.881 24.857 14.742C25.508 14.28 26.055 13.703 26.501 13.039Z" fill="white"/>
</g>
<defs>
<clipPath id="clip0">
<rect width="16" height="16" fill="white" transform="translate(10.501 10)"/>
</clipPath>
</defs>
</svg>
