<svg width="137" height="61" viewBox="0 0 137 61" fill="none" xmlns="http://www.w3.org/2000/svg">
<g clip-path="url(#clip0_94_1398)">
<path d="M0 46.4197C0 46.4197 10.2521 24.7008 36.3462 16.1977C62.4277 7.69458 96.6933 7.42925 113.438 33.4692C113.438 33.4692 106.557 9.40025 68.9199 8.08625C31.2828 6.77225 5.32659 29.2745 0 46.4197Z" fill="#929292"/>
<path d="M15.4766 31.7767C19.0736 34.3037 23.7986 34.708 28.1225 33.9499C32.4465 33.2045 36.5072 31.4103 40.6056 29.8436C47.5489 27.1904 54.8182 25.1057 62.2503 25.1183C71.7379 25.1309 80.9498 28.5675 89.159 33.3561C74.2446 35.5924 58.904 35.0238 44.1775 31.7136C61.7741 38.9911 81.0751 42.0108 100.025 40.4694C97.1803 44.9168 97.5938 51.9669 101.479 55.5172C101.028 51.0319 101.454 46.2308 104.362 42.9458C107.833 39.0164 114.326 38.5363 118.624 41.5307C122.923 44.5251 124.816 50.4002 123.588 55.5172C128.062 55.5172 132.524 55.5046 136.998 55.5046C136.296 52.8134 135.594 50.1096 134.893 47.4184C135.532 47.9112 136.259 46.8246 136.221 46.016C136.058 42.1624 132.073 39.7618 128.476 38.4478C119.264 35.0744 109.362 34.0636 99.5741 33.8236C97.8194 33.7856 96.0397 33.7604 94.3728 33.2045C92.8062 32.6864 91.4275 31.7262 90.0363 30.8291C88.3068 29.7173 86.5271 28.6939 84.6972 27.7589C81.3258 26.0406 77.7664 24.5371 74.1192 23.5137C70.5723 22.5156 66.5993 22.4271 62.9397 22.5156C55.1691 22.7051 47.4863 24.5118 40.192 27.1651C37.4723 28.1506 34.7024 29.2751 31.9075 30.2227C26.4431 32.0673 20.9034 33.3055 15.4766 31.7767ZM127.172 47.3047L133.84 47.5195L128.4 48.3787L128.588 52.1311L134.617 53.5462L127.448 53.1419L127.172 47.3047ZM123.362 38.3468C135.482 40.7347 134.416 46.1044 134.416 46.1044C130.518 45.3463 123.362 38.3468 123.362 38.3468Z" fill="#262626"/>
<path d="M30.6935 57.2354V57.627H29.4778V60.9878H29.0516V57.627H27.8359V57.2354H30.6935Z" fill="#A6A0A0"/>
<path d="M33.3248 60.0276H31.2945L30.8809 60.9878H30.4297L32.0966 57.2354H32.5353L34.2022 60.9878H33.7384L33.3248 60.0276ZM33.1494 59.6359L32.2971 57.7028L31.4574 59.6359H33.1494Z" fill="#A6A0A0"/>
<path d="M37.2969 59.1558H37.6729V60.5203C37.3094 60.8109 36.783 61.0131 36.2942 61.0131C35.2164 61.0131 34.3516 60.1792 34.3516 59.1179C34.3516 58.0566 35.2163 57.2354 36.3193 57.2354C36.8331 57.2354 37.3345 57.4375 37.6979 57.7534L37.4473 58.0692C37.1465 57.7913 36.7329 57.6397 36.3193 57.6397C35.467 57.6397 34.7902 58.3093 34.7902 59.1432C34.7902 59.977 35.4795 60.6467 36.3318 60.6467C36.6702 60.6467 37.0211 60.533 37.3094 60.3308V59.1558H37.2969Z" fill="#A6A0A0"/>
<path d="M39.1371 57.2354V60.5962H40.7664V60.9878H38.7109V57.2354H39.1371Z" fill="#A6A0A0"/>
<path d="M41.8949 57.2354V60.9878H41.4688V57.2354H41.8949Z" fill="#A6A0A0"/>
<path d="M43.4621 57.2354L45.693 60.2929V57.2354H46.1191V60.9878H45.6805L43.4496 57.9429V60.9878H43.0234V57.2354H43.4621Z" fill="#A6A0A0"/>
<path d="M49.7973 57.2354V57.627H47.6918V58.8905H49.5718V59.2822H47.6918V60.5962H49.86V60.9878H47.2656V57.2354H49.7973Z" fill="#A6A0A0"/>
<path d="M52.7543 57.2354V58.941H54.9977V57.2354H55.4238V60.9878H54.9977V59.3201H52.7543V60.9878H52.3281V57.2354H52.7543Z" fill="#A6A0A0"/>
<path d="M59.0942 57.2354V57.627H56.9886V58.8905H58.8686V59.2822H56.9886V60.5962H59.1569V60.9878H56.5625V57.2354H59.0942Z" fill="#A6A0A0"/>
<path d="M62.4627 60.9878L61.6856 59.7875C61.6104 59.7875 61.5352 59.8002 61.4475 59.8002H60.4574V60.9878H60.0312V57.2354H61.4475C62.375 57.2354 62.9139 57.6902 62.9139 58.4988C62.9139 59.1179 62.6131 59.5349 62.0742 59.7117L62.9515 61.0005H62.4627V60.9878ZM61.4475 59.4085C62.1243 59.4085 62.5128 59.1053 62.5128 58.5114C62.5128 57.9429 62.1243 57.6397 61.4475 57.6397H60.4574V59.4085H61.4475Z" fill="#A6A0A0"/>
<path d="M66.4145 57.2354V57.627H64.3089V58.8905H66.1889V59.2822H64.3089V60.5962H66.4772V60.9878H63.8828V57.2354H66.4145Z" fill="#A6A0A0"/>
<path d="M25.518 58.8018H3.35938V59.4209H25.518V58.8018Z" fill="#A6A0A0"/>
<path d="M90.9634 58.8018H68.8047V59.4209H90.9634V58.8018Z" fill="#A6A0A0"/>
<path d="M61.0711 1.37793C54.2279 2.52768 48.024 4.3218 42.4844 6.44442L42.7601 9.41355C48.5003 7.85949 54.2906 6.92453 60.0183 6.57076L61.0711 1.37793Z" fill="#545454"/>
<path d="M92.7578 10.7398C101.819 13.949 107.635 19.3567 111.345 24.6885L124.379 17.2846C119.115 11.4221 111.345 5.88815 99.8516 2.72949L92.7578 10.7398Z" fill="#BB3230"/>
<path d="M40.1294 7.37891C20.6278 15.4398 10.125 27.2153 10.125 27.2153C19.2742 18.8511 29.6767 13.3172 40.3801 10.0574L40.1294 7.37891Z" fill="#60BC4C"/>
<path d="M125.982 19.1924L112.672 26.7605C114.176 29.2622 115.254 31.6754 116.006 33.7475C119.665 34.3539 130.106 36.3502 135.244 40.2669C135.232 40.2669 134.279 29.5654 125.982 19.1924Z" fill="#BB3230"/>
<path d="M97.1681 2.05973C93.333 1.17531 89.1344 0.543577 84.4971 0.227711C77.0274 -0.26504 70.084 0.0634606 63.6545 0.973154L62.5391 6.44395C72.3149 6.11545 81.79 7.40419 90.2122 9.91848L97.1681 2.05973Z" fill="#545454"/>
<path d="M12.449 50.739H7.723L6.941 53H4.442L8.709 41.117H11.48L15.747 53H13.231L12.449 50.739ZM11.803 48.835L10.086 43.871L8.369 48.835H11.803ZM24.1637 45.537V50.093C24.1637 50.4103 24.2374 50.6427 24.3847 50.79C24.5434 50.926 24.8041 50.994 25.1667 50.994H26.2717V53H24.7757C22.7697 53 21.7667 52.0253 21.7667 50.076V45.537H20.6447V43.582H21.7667V41.253H24.1637V43.582H26.2717V45.537H24.1637ZM32.1655 53.153C31.2589 53.153 30.4429 52.9547 29.7175 52.558C28.9922 52.15 28.4199 51.5777 28.0005 50.841C27.5925 50.1043 27.3885 49.2543 27.3885 48.291C27.3885 47.3277 27.5982 46.4777 28.0175 45.741C28.4482 45.0043 29.0319 44.4377 29.7685 44.041C30.5052 43.633 31.3269 43.429 32.2335 43.429C33.1402 43.429 33.9619 43.633 34.6985 44.041C35.4352 44.4377 36.0132 45.0043 36.4325 45.741C36.8632 46.4777 37.0785 47.3277 37.0785 48.291C37.0785 49.2543 36.8575 50.1043 36.4155 50.841C35.9849 51.5777 35.3955 52.15 34.6475 52.558C33.9109 52.9547 33.0835 53.153 32.1655 53.153ZM32.1655 51.079C32.5962 51.079 32.9985 50.977 33.3725 50.773C33.7579 50.5577 34.0639 50.2403 34.2905 49.821C34.5172 49.4017 34.6305 48.8917 34.6305 48.291C34.6305 47.3957 34.3925 46.71 33.9165 46.234C33.4519 45.7467 32.8795 45.503 32.1995 45.503C31.5195 45.503 30.9472 45.7467 30.4825 46.234C30.0292 46.71 29.8025 47.3957 29.8025 48.291C29.8025 49.1863 30.0235 49.8777 30.4655 50.365C30.9189 50.841 31.4855 51.079 32.1655 51.079ZM45.3061 50.994H50.6441V53H42.5521V51.164L47.8561 43.14H42.5521V41.134H50.6441V42.97L45.3061 50.994ZM56.1429 47.05C56.1429 45.8827 56.4035 44.84 56.9249 43.922C57.4575 42.9927 58.1772 42.273 59.0839 41.763C60.0019 41.2417 61.0275 40.981 62.1609 40.981C63.4869 40.981 64.6485 41.321 65.6459 42.001C66.6432 42.681 67.3402 43.6217 67.7369 44.823H64.9999C64.7279 44.2563 64.3425 43.8313 63.8439 43.548C63.3565 43.2647 62.7899 43.123 62.1439 43.123C61.4525 43.123 60.8349 43.2873 60.2909 43.616C59.7582 43.9333 59.3389 44.3867 59.0329 44.976C58.7382 45.5653 58.5909 46.2567 58.5909 47.05C58.5909 47.832 58.7382 48.5233 59.0329 49.124C59.3389 49.7133 59.7582 50.1723 60.2909 50.501C60.8349 50.8183 61.4525 50.977 62.1439 50.977C62.7899 50.977 63.3565 50.8353 63.8439 50.552C64.3425 50.2573 64.7279 49.8267 64.9999 49.26H67.7369C67.3402 50.4727 66.6432 51.419 65.6459 52.099C64.6599 52.7677 63.4982 53.102 62.1609 53.102C61.0275 53.102 60.0019 52.847 59.0839 52.337C58.1772 51.8157 57.4575 51.096 56.9249 50.178C56.4035 49.26 56.1429 48.2173 56.1429 47.05ZM69.1577 48.257C69.1577 47.305 69.3447 46.4607 69.7187 45.724C70.104 44.9873 70.6197 44.4207 71.2657 44.024C71.923 43.6273 72.654 43.429 73.4587 43.429C74.1613 43.429 74.7733 43.5707 75.2947 43.854C75.8273 44.1373 76.2523 44.4943 76.5697 44.925V43.582H78.9667V53H76.5697V51.623C76.2637 52.065 75.8387 52.4333 75.2947 52.728C74.762 53.0113 74.1443 53.153 73.4417 53.153C72.6483 53.153 71.923 52.949 71.2657 52.541C70.6197 52.133 70.104 51.5607 69.7187 50.824C69.3447 50.076 69.1577 49.2203 69.1577 48.257ZM76.5697 48.291C76.5697 47.713 76.4563 47.22 76.2297 46.812C76.003 46.3927 75.697 46.0753 75.3117 45.86C74.9263 45.6333 74.5127 45.52 74.0707 45.52C73.6287 45.52 73.2207 45.6277 72.8467 45.843C72.4727 46.0583 72.1667 46.3757 71.9287 46.795C71.702 47.203 71.5887 47.6903 71.5887 48.257C71.5887 48.8237 71.702 49.3223 71.9287 49.753C72.1667 50.1723 72.4727 50.4953 72.8467 50.722C73.232 50.9487 73.64 51.062 74.0707 51.062C74.5127 51.062 74.9263 50.9543 75.3117 50.739C75.697 50.5123 76.003 50.195 76.2297 49.787C76.4563 49.3677 76.5697 48.869 76.5697 48.291ZM83.6712 45.044C83.9772 44.5453 84.3738 44.1543 84.8612 43.871C85.3598 43.5877 85.9265 43.446 86.5612 43.446V45.945H85.9322C85.1842 45.945 84.6175 46.1207 84.2322 46.472C83.8582 46.8233 83.6712 47.4353 83.6712 48.308V53H81.2912V43.582H83.6712V45.044ZM91.7682 53.153C90.9975 53.153 90.3062 53.017 89.6942 52.745C89.0822 52.4617 88.5949 52.082 88.2322 51.606C87.8809 51.13 87.6882 50.603 87.6542 50.025H90.0512C90.0965 50.3877 90.2722 50.688 90.5782 50.926C90.8955 51.164 91.2865 51.283 91.7512 51.283C92.2045 51.283 92.5559 51.1923 92.8052 51.011C93.0659 50.8297 93.1962 50.5973 93.1962 50.314C93.1962 50.008 93.0375 49.7813 92.7202 49.634C92.4142 49.4753 91.9212 49.3053 91.2412 49.124C90.5385 48.954 89.9605 48.7783 89.5072 48.597C89.0652 48.4157 88.6799 48.138 88.3512 47.764C88.0339 47.39 87.8752 46.8857 87.8752 46.251C87.8752 45.7297 88.0225 45.2537 88.3172 44.823C88.6232 44.3923 89.0539 44.0523 89.6092 43.803C90.1759 43.5537 90.8389 43.429 91.5982 43.429C92.7202 43.429 93.6155 43.7123 94.2842 44.279C94.9529 44.8343 95.3212 45.588 95.3892 46.54H93.1112C93.0772 46.166 92.9185 45.8713 92.6352 45.656C92.3632 45.4293 91.9949 45.316 91.5302 45.316C91.0995 45.316 90.7652 45.3953 90.5272 45.554C90.3005 45.7127 90.1872 45.9337 90.1872 46.217C90.1872 46.5343 90.3459 46.778 90.6632 46.948C90.9805 47.1067 91.4735 47.271 92.1422 47.441C92.8222 47.611 93.3832 47.7867 93.8252 47.968C94.2672 48.1493 94.6469 48.4327 94.9642 48.818C95.2929 49.192 95.4629 49.6907 95.4742 50.314C95.4742 50.858 95.3212 51.3453 95.0152 51.776C94.7205 52.2067 94.2899 52.5467 93.7232 52.796C93.1679 53.034 92.5162 53.153 91.7682 53.153Z" fill="#545454"/>
</g>
<defs>
<clipPath id="clip0_94_1398">
<rect width="137" height="61" fill="white"/>
</clipPath>
</defs>
</svg>
