<svg width="433" height="136" viewBox="0 0 433 136" fill="none" xmlns="http://www.w3.org/2000/svg">
<rect width="104.939" height="122.309" fill="white"/>
<path d="M95.1129 0H433V136H0.463806L95.1129 0Z" fill="#2A436A"/>
<path d="M170.023 86.0635C165.661 86.0635 162.149 82.7621 162.149 78.7072V61.5188C162.149 59.581 161.779 57.6792 160.929 55.9209C160.374 54.7367 159.598 53.6961 158.637 52.7631C156.123 50.3588 153.165 50 151.686 50H162.149C166.511 50 171.872 51.4354 174.94 54.3061C178.009 57.1768 177.898 60.9446 177.898 64.7125V78.7072C177.861 82.7621 174.349 86.0635 170.023 86.0635Z" fill="#78D12A"/>
<path d="M190.135 86.0635C185.773 86.0635 182.26 82.7621 182.26 78.7072V61.5188C182.26 59.581 181.891 57.6792 181.04 55.9209C180.486 54.7367 179.709 53.6961 178.748 52.7631C176.234 50.3588 173.277 50 171.798 50H182.26C186.623 50 191.983 51.4354 195.052 54.3061C198.121 57.1768 198.01 60.9446 198.01 64.7125V78.7072C198.01 82.7621 194.497 86.0635 190.135 86.0635Z" fill="#F76014"/>
<path d="M236.865 50.6819C238.381 50.6819 239.786 50.969 241.117 51.5072C242.448 52.0455 243.594 52.7991 244.592 53.7679C245.59 54.7009 246.367 55.8492 246.958 57.141C247.55 58.4329 247.846 59.7965 247.846 61.2677V84.5207H240.784V60.8371C240.636 59.9041 240.193 59.1147 239.453 58.4687C238.714 57.8228 237.864 57.4999 236.865 57.4999C235.83 57.4999 234.943 57.8228 234.203 58.5046C233.464 59.1505 233.057 59.9759 232.947 60.9447V84.5207H225.848V61.3036C225.848 60.2629 225.479 59.3658 224.702 58.6123C223.926 57.8587 223.001 57.4999 221.929 57.4999C220.931 57.4999 220.081 57.7869 219.342 58.397C218.639 59.007 218.158 59.7606 217.974 60.6936V84.4846H210.912V61.2677C210.912 59.7965 211.208 58.4329 211.8 57.141C212.391 55.8492 213.168 54.7368 214.166 53.7679C215.164 52.835 216.31 52.0814 217.641 51.5072C218.972 50.969 220.377 50.6819 221.892 50.6819C223.334 50.6819 224.702 50.9331 225.996 51.4355C227.29 51.9378 228.399 52.6196 229.36 53.5167C230.359 52.6196 231.505 51.9378 232.762 51.4355C234.093 50.9331 235.424 50.6819 236.865 50.6819Z" fill="white"/>
<path d="M263.927 57.6793C265.85 57.6793 267.624 58.0382 269.325 58.7199C270.988 59.4017 272.467 60.3706 273.724 61.5907C274.981 62.8107 275.98 64.2461 276.682 65.8609C277.384 67.4757 277.754 69.234 277.754 71.1C277.754 72.9659 277.384 74.6883 276.682 76.339C275.98 77.9537 274.981 79.3891 273.724 80.6093C272.467 81.8293 270.988 82.7982 269.325 83.4799C267.661 84.1617 265.85 84.5207 263.927 84.5207C262.005 84.5207 260.23 84.1617 258.53 83.4799C256.866 82.7982 255.387 81.8293 254.13 80.6093C252.873 79.3891 251.875 77.9537 251.173 76.339C250.47 74.7242 250.101 72.9659 250.101 71.1C250.101 69.234 250.47 67.5115 251.173 65.8609C251.875 64.2461 252.873 62.8107 254.13 61.5907C255.387 60.3706 256.866 59.4017 258.53 58.7199C260.193 58.0023 262.005 57.6793 263.927 57.6793ZM263.927 77.6308C264.851 77.6308 265.739 77.4515 266.552 77.1286C267.365 76.8054 268.105 76.339 268.696 75.729C269.288 75.1548 269.768 74.4372 270.138 73.6477C270.471 72.8583 270.656 71.9971 270.656 71.1C270.656 70.2028 270.471 69.3416 270.138 68.5522C269.805 67.7627 269.325 67.045 268.696 66.4709C268.105 65.8968 267.365 65.4303 266.552 65.0714C265.739 64.7485 264.851 64.569 263.927 64.569C263.003 64.569 262.116 64.7485 261.303 65.0714C260.489 65.3944 259.75 65.8609 259.158 66.4709C258.567 67.045 258.086 67.7627 257.716 68.5522C257.383 69.3416 257.199 70.2028 257.199 71.1C257.199 71.9971 257.383 72.8583 257.716 73.6477C258.049 74.4372 258.53 75.1548 259.158 75.729C259.75 76.3032 260.489 76.7696 261.303 77.1286C262.116 77.4873 263.003 77.6308 263.927 77.6308Z" fill="white"/>
<path d="M307.626 84.5207H300.528V71.1C300.528 70.2028 300.343 69.3416 300.01 68.5522C299.678 67.7627 299.197 67.045 298.568 66.4709C297.977 65.8968 297.237 65.4303 296.424 65.0714C295.611 64.7485 294.724 64.569 293.799 64.569C292.875 64.569 291.988 64.7485 291.174 65.0714C290.361 65.3944 289.622 65.8609 289.03 66.4709C288.439 67.045 287.958 67.7627 287.588 68.5522C287.255 69.3416 287.071 70.2028 287.071 71.1V84.5207H279.973V71.1C279.973 69.234 280.342 67.5115 281.045 65.8609C281.747 64.2461 282.745 62.8107 284.002 61.5907C285.259 60.3706 286.738 59.4017 288.402 58.7199C290.065 58.0382 291.877 57.6793 293.799 57.6793C295.722 57.6793 297.496 58.0382 299.197 58.7199C300.861 59.4017 302.34 60.3706 303.596 61.5907C304.853 62.8107 305.852 64.2461 306.554 65.8609C307.257 67.4757 307.626 69.234 307.626 71.1V84.5207Z" fill="white"/>
<path d="M323.634 100.453C321.712 100.453 319.937 100.094 318.237 99.4126C316.573 98.7308 315.094 97.7618 313.837 96.5419C312.58 95.3217 311.582 93.8865 310.88 92.2715C310.177 90.6568 309.807 88.8985 309.807 87.0325H316.869C316.869 87.9295 317.053 88.7908 317.386 89.5804C317.719 90.3697 318.2 91.0874 318.828 91.6615C319.42 92.2357 320.159 92.7021 320.972 93.0611C321.786 93.384 322.673 93.5634 323.597 93.5634C324.521 93.5634 325.409 93.384 326.222 93.0611C327.035 92.7382 327.775 92.2715 328.366 91.6615C328.958 91.0874 329.438 90.3697 329.808 89.5804C330.141 88.7908 330.326 87.9295 330.326 87.0325V82.834C328.255 83.9465 326 84.4849 323.56 84.4849C321.638 84.4849 319.863 84.1259 318.162 83.4443C316.499 82.7624 315.02 81.7935 313.763 80.5735C312.506 79.3533 311.508 77.9179 310.805 76.3032C310.103 74.6884 309.733 72.9301 309.733 71.0641C309.733 69.1982 310.103 67.4758 310.805 65.8251C311.508 64.2103 312.506 62.7749 313.763 61.5549C315.02 60.3348 316.499 59.3659 318.162 58.6841C319.826 58.0023 321.638 57.6435 323.56 57.6435C325.483 57.6435 327.257 58.0023 328.958 58.6841C330.622 59.3659 332.1 60.3348 333.357 61.5549C334.614 62.7749 335.612 64.2103 336.315 65.8251C337.017 67.4399 337.387 69.1982 337.387 71.0641V86.9967C337.387 88.8627 337.017 90.5851 336.315 92.2357C335.612 93.8505 334.614 95.2858 333.357 96.5061C332.1 97.726 330.622 98.695 328.958 99.3766C327.368 100.094 325.557 100.453 323.634 100.453ZM323.634 77.6308C324.521 77.6308 325.372 77.4873 326.185 77.1644C326.999 76.8415 327.701 76.4109 328.329 75.8367C328.921 75.2626 329.438 74.5808 329.808 73.8272C330.178 73.0737 330.363 72.2483 330.4 71.3871V71.1359C330.4 70.2388 330.215 69.3776 329.882 68.5881C329.549 67.7987 329.069 67.081 328.44 66.5069C327.849 65.9327 327.109 65.4662 326.296 65.1074C325.483 64.7844 324.595 64.605 323.671 64.605C322.747 64.605 321.86 64.7844 321.046 65.1074C320.233 65.4304 319.493 65.8969 318.902 66.5069C318.31 67.081 317.83 67.7987 317.46 68.5881C317.127 69.3776 316.943 70.2388 316.943 71.1359C316.943 72.033 317.127 72.8942 317.46 73.6837C317.793 74.4731 318.273 75.1908 318.902 75.7651C319.493 76.3392 320.233 76.8057 321.046 77.1644C321.86 77.4873 322.71 77.6308 323.634 77.6308Z" fill="white"/>
<path d="M353.506 57.6793C355.428 57.6793 357.203 58.0382 358.903 58.7199C360.567 59.4017 362.046 60.3706 363.303 61.5907C364.56 62.8107 365.558 64.2461 366.26 65.8609C366.963 67.4757 367.333 69.234 367.333 71.1C367.333 72.9659 366.963 74.6883 366.26 76.339C365.558 77.9537 364.56 79.3891 363.303 80.6093C362.046 81.8293 360.567 82.7982 358.903 83.4799C357.24 84.1617 355.428 84.5207 353.506 84.5207C351.583 84.5207 349.809 84.1617 348.108 83.4799C346.445 82.7982 344.966 81.8293 343.709 80.6093C342.452 79.3891 341.454 77.9537 340.751 76.339C340.049 74.7242 339.679 72.9659 339.679 71.1C339.679 69.234 340.049 67.5115 340.751 65.8609C341.454 64.2461 342.452 62.8107 343.709 61.5907C344.966 60.3706 346.445 59.4017 348.108 58.7199C349.809 58.0023 351.583 57.6793 353.506 57.6793ZM353.506 77.6308C354.43 77.6308 355.317 77.4515 356.131 77.1286C356.944 76.8054 357.683 76.339 358.275 75.729C358.867 75.1548 359.347 74.4372 359.717 73.6477C360.05 72.8583 360.234 71.9971 360.234 71.1C360.234 70.2028 360.05 69.3416 359.717 68.5522C359.384 67.7627 358.903 67.045 358.275 66.4709C357.683 65.8968 356.944 65.4303 356.131 65.0714C355.317 64.7485 354.43 64.569 353.506 64.569C352.582 64.569 351.694 64.7485 350.881 65.0714C350.068 65.3944 349.328 65.8609 348.737 66.4709C348.145 67.045 347.665 67.7627 347.295 68.5522C346.962 69.3416 346.777 70.2028 346.777 71.1C346.777 71.9971 346.962 72.8583 347.295 73.6477C347.628 74.4372 348.108 75.1548 348.737 75.729C349.328 76.3032 350.068 76.7696 350.881 77.1286C351.731 77.4873 352.582 77.6308 353.506 77.6308Z" fill="white"/>
<path d="M149.875 86.1725C145.512 86.1725 142 82.8711 142 78.8162V50.1091C146.362 50.1091 150.688 50.9703 153.757 53.841C156.825 56.7117 157.749 60.7667 157.749 64.8574V78.8162C157.749 82.8711 154.237 86.1725 149.875 86.1725Z" fill="#0AACDD"/>
</svg>
