<svg width="199" height="37" viewBox="0 0 199 37" fill="none" xmlns="http://www.w3.org/2000/svg">
<path d="M0 36.6357H5.84089V0.468355H0V36.6357Z" fill="#333333"/>
<path d="M36.9242 0.416316V27.3727L19.3503 0.416316H13.5094V36.6357H19.3503V9.62729L36.9242 36.6357H42.7651V0.416316H36.9242Z" fill="#333333"/>
<path d="M64.3714 30.5471L53.8168 0.468355H47.5661L60.9899 36.6357H67.753L81.1255 0.468355H74.9772L64.3714 30.5471Z" fill="#333333"/>
<path d="M120.441 18.474C120.441 7.64979 112.397 0 102.252 0C92.2097 0 84.0632 7.64979 84.0632 18.474C84.0632 29.3502 92.2097 37 102.252 37C112.397 37 120.441 29.3502 120.441 18.474ZM90.0578 18.474C90.0578 10.3038 95.1814 5.20394 102.252 5.20394C109.322 5.20394 114.446 10.3038 114.446 18.474C114.446 26.6442 109.322 31.8481 102.252 31.8481C95.1814 31.8481 90.0578 26.6442 90.0578 18.474Z" fill="#333333"/>
<path d="M126.188 36.6357H132.029V0.468355H126.188V36.6357Z" fill="#333333"/>
<path d="M137.751 18.474C137.751 29.3502 145.897 36.948 155.939 36.948C163.369 36.948 169.773 33.2011 172.489 26.1238H165.469C163.574 29.9747 160.192 31.7961 155.939 31.7961C148.869 31.7961 143.745 26.6442 143.745 18.474C143.745 10.3038 148.869 5.20394 155.939 5.20394C160.192 5.20394 163.574 7.02532 165.469 10.8762H172.489C169.773 3.79888 163.369 0 155.939 0C145.897 0 137.751 7.64979 137.751 18.474Z" fill="#333333"/>
<path d="M199 0.416316H179.325V36.6357H199V31.7961H185.166V20.7117H197.463V15.872H185.166V5.25598H199V0.416316Z" fill="#333333"/>
</svg>
