<svg width="146" height="35" viewBox="0 0 146 35" fill="none" xmlns="http://www.w3.org/2000/svg">
<g clip-path="url(#clip0_53:1281)">
<path d="M18.5028 24.7146C15.6838 24.7146 13.4144 22.5167 13.4144 19.8173V8.37428C13.4144 7.08425 13.1755 5.81812 12.626 4.64755C12.2677 3.8592 11.766 3.16641 11.1449 2.54529C9.5204 0.944704 7.60926 0.705811 6.65369 0.705811H13.4144C16.2333 0.705811 19.6972 1.66138 21.6801 3.57253C23.6629 5.48367 23.5912 7.99205 23.5912 10.5004V19.8173C23.5673 22.5167 21.2978 24.7146 18.5028 24.7146Z" fill="#78D12A"/>
<path d="M31.4986 24.7146C28.6796 24.7146 26.4101 22.5167 26.4101 19.8173V8.37428C26.4101 7.08425 26.1713 5.81812 25.6218 4.64755C25.2635 3.8592 24.7618 3.16641 24.1407 2.54529C22.5162 0.944704 20.605 0.705811 19.6495 0.705811H26.4101C29.2291 0.705811 32.693 1.66138 34.6758 3.57253C36.6587 5.48367 36.587 7.99205 36.587 10.5004V19.8173C36.587 22.5167 34.3175 24.7146 31.4986 24.7146Z" fill="#F76014"/>
<path d="M61.6947 1.15967C62.6741 1.15967 63.5819 1.35078 64.4419 1.70912C65.302 2.06746 66.0425 2.56914 66.6875 3.21415C67.3325 3.83527 67.8342 4.59973 68.2164 5.45974C68.5987 6.31976 68.7898 7.22755 68.7898 8.20701V23.6873H64.2269V7.92034C64.1314 7.29922 63.8447 6.77365 63.3669 6.34365C62.8891 5.91364 62.3397 5.69863 61.6947 5.69863C61.0258 5.69863 60.4524 5.91364 59.9746 6.36754C59.4968 6.79754 59.2341 7.347 59.1624 7.99201V23.6873H54.5757V8.2309C54.5757 7.53811 54.3368 6.94088 53.8351 6.4392C53.3334 5.93753 52.7362 5.69863 52.0434 5.69863C51.3984 5.69863 50.8489 5.88975 50.3711 6.29587C49.9172 6.70199 49.6067 7.20366 49.4872 7.82478V23.6634H44.9244V8.20701C44.9244 7.22755 45.1155 6.31976 45.4977 5.45974C45.88 4.59973 46.3816 3.85916 47.0266 3.21415C47.6716 2.59303 48.4122 2.09135 49.2722 1.70912C50.1322 1.35078 51.04 1.15967 52.0195 1.15967C52.9512 1.15967 53.8351 1.32689 54.6712 1.66134C55.5073 1.99579 56.224 2.44969 56.8451 3.04692C57.4902 2.44969 58.2307 1.99579 59.043 1.66134C59.903 1.32689 60.763 1.15967 61.6947 1.15967Z" fill="#333333"/>
<path d="M79.1816 5.81812C80.4238 5.81812 81.5705 6.05701 82.6694 6.5109C83.7445 6.9648 84.7 7.60981 85.5123 8.42205C86.3245 9.23428 86.9695 10.1899 87.4234 11.2649C87.8773 12.3399 88.1162 13.5105 88.1162 14.7527C88.1162 15.995 87.8773 17.1416 87.4234 18.2406C86.9695 19.3156 86.3245 20.2711 85.5123 21.0834C84.7 21.8956 83.7445 22.5406 82.6694 22.9945C81.5944 23.4484 80.4238 23.6873 79.1816 23.6873C77.9394 23.6873 76.7927 23.4484 75.6938 22.9945C74.6188 22.5406 73.6632 21.8956 72.8509 21.0834C72.0387 20.2711 71.3937 19.3156 70.9398 18.2406C70.4859 17.1655 70.247 15.995 70.247 14.7527C70.247 13.5105 70.4859 12.3638 70.9398 11.2649C71.3937 10.1899 72.0387 9.23428 72.8509 8.42205C73.6632 7.60981 74.6188 6.9648 75.6938 6.5109C76.7688 6.03312 77.9394 5.81812 79.1816 5.81812ZM79.1816 19.1006C79.7788 19.1006 80.3522 18.9811 80.8777 18.7661C81.4033 18.5511 81.8811 18.2405 82.2633 17.8344C82.6456 17.4522 82.9561 16.9744 83.195 16.4489C83.41 15.9233 83.5295 15.3499 83.5295 14.7527C83.5295 14.1555 83.41 13.5821 83.195 13.0566C82.98 12.531 82.6694 12.0532 82.2633 11.671C81.8811 11.2888 81.4033 10.9782 80.8777 10.7393C80.3522 10.5243 79.7788 10.4049 79.1816 10.4049C78.5844 10.4049 78.011 10.5243 77.4855 10.7393C76.9599 10.9543 76.4821 11.2649 76.0999 11.671C75.7177 12.0532 75.4071 12.531 75.1682 13.0566C74.9532 13.5821 74.8338 14.1555 74.8338 14.7527C74.8338 15.3499 74.9532 15.9233 75.1682 16.4489C75.3832 16.9744 75.6938 17.4522 76.0999 17.8344C76.4821 18.2167 76.9599 18.5272 77.4855 18.7661C78.011 19.005 78.5844 19.1006 79.1816 19.1006Z" fill="#333333"/>
<path d="M107.419 23.6873H102.832V14.7527C102.832 14.1555 102.713 13.5821 102.498 13.0566C102.283 12.531 101.972 12.0532 101.566 11.671C101.184 11.2888 100.706 10.9782 100.18 10.7393C99.6548 10.5243 99.0814 10.4049 98.4842 10.4049C97.8869 10.4049 97.3136 10.5243 96.788 10.7393C96.2625 10.9543 95.7847 11.2649 95.4024 11.671C95.0202 12.0532 94.7097 12.531 94.4708 13.0566C94.2558 13.5821 94.1363 14.1555 94.1363 14.7527V23.6873H89.5496V14.7527C89.5496 13.5105 89.7885 12.3638 90.2423 11.2649C90.6962 10.1899 91.3413 9.23428 92.1535 8.42205C92.9657 7.60981 93.9213 6.9648 94.9963 6.5109C96.0713 6.05701 97.2419 5.81812 98.4842 5.81812C99.7264 5.81812 100.873 6.05701 101.972 6.5109C103.047 6.9648 104.003 7.60981 104.815 8.42205C105.627 9.23428 106.272 10.1899 106.726 11.2649C107.18 12.3399 107.419 13.5105 107.419 14.7527V23.6873Z" fill="#333333"/>
<path d="M117.763 34.2941C116.521 34.2941 115.374 34.0552 114.275 33.6013C113.2 33.1474 112.244 32.5024 111.432 31.6902C110.62 30.878 109.975 29.9224 109.521 28.8474C109.067 27.7723 108.828 26.6018 108.828 25.3595H113.391C113.391 25.9568 113.511 26.5301 113.726 27.0557C113.941 27.5812 114.251 28.059 114.657 28.4412C115.039 28.8235 115.517 29.134 116.043 29.3729C116.568 29.5879 117.142 29.7074 117.739 29.7074C118.336 29.7074 118.91 29.5879 119.435 29.3729C119.961 29.1579 120.438 28.8474 120.821 28.4412C121.203 28.059 121.513 27.5812 121.752 27.0557C121.967 26.5301 122.087 25.9568 122.087 25.3595V22.5645C120.749 23.305 119.292 23.6634 117.715 23.6634C116.473 23.6634 115.326 23.4245 114.227 22.9706C113.152 22.5167 112.197 21.8717 111.384 21.0595C110.572 20.2472 109.927 19.2916 109.473 18.2166C109.019 17.1416 108.78 15.971 108.78 14.7288C108.78 13.4865 109.019 12.3399 109.473 11.2409C109.927 10.1659 110.572 9.21036 111.384 8.39812C112.197 7.58589 113.152 6.94088 114.227 6.48698C115.302 6.03308 116.473 5.79419 117.715 5.79419C118.957 5.79419 120.104 6.03308 121.203 6.48698C122.278 6.94088 123.233 7.58589 124.046 8.39812C124.858 9.21036 125.503 10.1659 125.957 11.2409C126.411 12.316 126.65 13.4865 126.65 14.7288V25.3356C126.65 26.5779 126.411 27.7246 125.957 28.8235C125.503 29.8985 124.858 30.8541 124.046 31.6663C123.233 32.4785 122.278 33.1235 121.203 33.5774C120.176 34.0552 119.005 34.2941 117.763 34.2941ZM117.763 19.1005C118.336 19.1005 118.886 19.005 119.411 18.79C119.937 18.575 120.391 18.2883 120.797 17.9061C121.179 17.5238 121.513 17.0699 121.752 16.5683C121.991 16.0666 122.111 15.5171 122.135 14.9438V14.7766C122.135 14.1793 122.015 13.606 121.8 13.0804C121.585 12.5549 121.275 12.0771 120.868 11.6948C120.486 11.3126 120.008 11.0021 119.483 10.7632C118.957 10.5482 118.384 10.4287 117.787 10.4287C117.189 10.4287 116.616 10.5482 116.091 10.7632C115.565 10.9782 115.087 11.2887 114.705 11.6948C114.323 12.0771 114.012 12.5549 113.773 13.0804C113.558 13.606 113.439 14.1793 113.439 14.7766C113.439 15.3738 113.558 15.9471 113.773 16.4727C113.988 16.9983 114.299 17.4761 114.705 17.8583C115.087 18.2405 115.565 18.5511 116.091 18.79C116.616 19.005 117.166 19.1005 117.763 19.1005Z" fill="#333333"/>
<path d="M137.065 5.81812C138.308 5.81812 139.454 6.05701 140.553 6.5109C141.628 6.9648 142.584 7.60981 143.396 8.42205C144.208 9.23428 144.853 10.1899 145.307 11.2649C145.761 12.3399 146 13.5105 146 14.7527C146 15.995 145.761 17.1416 145.307 18.2406C144.853 19.3156 144.208 20.2711 143.396 21.0834C142.584 21.8956 141.628 22.5406 140.553 22.9945C139.478 23.4484 138.308 23.6873 137.065 23.6873C135.823 23.6873 134.676 23.4484 133.578 22.9945C132.503 22.5406 131.547 21.8956 130.735 21.0834C129.922 20.2711 129.277 19.3156 128.824 18.2406C128.37 17.1655 128.131 15.995 128.131 14.7527C128.131 13.5105 128.37 12.3638 128.824 11.2649C129.277 10.1899 129.922 9.23428 130.735 8.42205C131.547 7.60981 132.503 6.9648 133.578 6.5109C134.676 6.03312 135.823 5.81812 137.065 5.81812ZM137.065 19.1006C137.663 19.1006 138.236 18.9811 138.762 18.7661C139.287 18.5511 139.765 18.2405 140.147 17.8344C140.529 17.4522 140.84 16.9744 141.079 16.4489C141.294 15.9233 141.413 15.3499 141.413 14.7527C141.413 14.1555 141.294 13.5821 141.079 13.0566C140.864 12.531 140.553 12.0532 140.147 11.671C139.765 11.2888 139.287 10.9782 138.762 10.7393C138.236 10.5243 137.663 10.4049 137.065 10.4049C136.468 10.4049 135.895 10.5243 135.369 10.7393C134.844 10.9543 134.366 11.2649 133.984 11.671C133.601 12.0532 133.291 12.531 133.052 13.0566C132.837 13.5821 132.718 14.1555 132.718 14.7527C132.718 15.3499 132.837 15.9233 133.052 16.4489C133.267 16.9744 133.578 17.4522 133.984 17.8344C134.366 18.2167 134.844 18.5272 135.369 18.7661C135.919 19.005 136.468 19.1006 137.065 19.1006Z" fill="#333333"/>
<path d="M5.48313 24.7871C2.6642 24.7871 0.394714 22.5893 0.394714 19.8898V0.77832C3.21365 0.77832 6.0087 1.35166 7.99151 3.26281C9.97432 5.17395 10.5716 7.87344 10.5716 10.5968V19.8898C10.5716 22.5893 8.30207 24.7871 5.48313 24.7871Z" fill="#0AACDD"/>
</g>
<defs>
<clipPath id="clip0_53:1281">
<rect width="145.605" height="33.5884" fill="white" transform="translate(0.394714 0.705811)"/>
</clipPath>
</defs>
</svg>
