<svg width="180" height="51" viewBox="0 0 180 51" fill="none" xmlns="http://www.w3.org/2000/svg">
<g clip-path="url(#clip0_544_5533)">
<path d="M75.4005 10.9533C74.857 10.799 65.4609 19.2827 65.4609 19.2827H68.3341H107.394L70.5084 17.8173L75.4005 10.9533Z" fill="#D05673"/>
<path d="M127.047 21.056C150.964 15.503 170.843 23.524 170.843 23.524L173.716 17.5854L165.33 17.4311C175.813 14.6546 180.006 8.48466 180.006 8.48466C179.075 8.63891 157.332 13.1121 151.43 12.1095C149.489 11.801 147.625 11.2612 145.761 10.6442C142.422 9.41016 139.005 7.79054 136.598 6.94217C128.755 4.08855 120.058 1.62056 111.749 0.617941C107.867 0.155193 103.906 -0.0761814 99.9459 0.000943288C92.3359 0.155193 84.8036 1.15781 77.5042 3.24018C73.9321 4.2428 70.5154 5.63105 67.254 7.32779C64.6138 8.71604 62.2065 10.2585 59.4887 11.4925C58.4015 11.9553 57.2367 12.5723 56.0719 12.8036C54.2082 13.1893 52.3446 13.3435 50.4032 13.4206C43.8027 13.7291 37.2022 13.5749 30.6793 14.5775C22.4481 15.8886 14.2945 17.1998 6.2186 19.3592C5.98564 19.4364 2.33594 20.1305 2.33594 20.439V21.1331C34.1737 13.1893 46.5982 16.12 51.4904 15.8886C53.6647 15.8115 55.839 15.7344 57.9356 15.1174C62.2065 13.8834 66.2445 11.184 70.2048 9.17878C74.3981 7.09642 78.5913 5.01405 83.0952 3.78005C89.9287 1.92906 97.1504 1.15781 104.295 1.69769C105.615 1.77481 107.012 1.92906 108.332 2.16043C133.026 6.55654 145.14 12.7265 149.566 15.4259C145.761 15.4259 142.5 15.8115 139.704 16.2743C135.589 17.0455 130.386 18.1252 127.047 21.056Z" fill="#FFD7B0"/>
<path d="M121.063 46.8923C118.967 47.5864 116.56 47.8949 113.842 47.8949C105.067 47.8949 100.641 44.3472 100.641 37.1746C100.641 30.3876 105.067 26.9941 113.842 26.9941C116.56 26.9941 118.889 27.3026 121.063 27.9968V31.4674C118.967 30.6961 116.637 30.3105 114.23 30.3105C108.328 30.3105 105.377 32.6242 105.377 37.1746C105.377 42.1106 108.328 44.5786 114.23 44.5786C116.715 44.5786 118.967 44.1929 121.063 43.4217V46.8923Z" fill="#FFD7B0"/>
<path d="M127.815 47.8179H123.156L133.562 27.1484H138.454L149.092 47.8179H144.2L141.405 42.1878H133.251L134.804 38.8714H139.774L135.891 31.1589L127.815 47.8179Z" fill="#FFD7B0"/>
<path d="M8.57325 47.8179H3.91406L14.3196 27.1484H19.2117L29.8502 47.8179H24.9581L22.1626 42.1878H14.009L15.562 38.8714H20.5318L16.6492 31.1589L8.57325 47.8179Z" fill="white"/>
<path d="M152.047 47.7407V27.1484H163.151C168.121 27.1484 170.684 28.9994 170.684 32.7014C170.684 35.1694 168.742 37.2518 164.86 38.8714L172.625 47.7407H166.879L159.424 38.7943V37.0204C163.772 36.4034 165.947 35.0152 165.947 32.7785C165.947 31.236 164.937 30.4648 162.918 30.4648H156.706V47.6636H152.047V47.7407Z" fill="#FFD7B0"/>
<path d="M41.6257 48.0248H46.0568V31.442H51.1594L53.7681 27.4609H37.8274L35.2188 31.442H41.6257V48.0248Z" fill="white"/>
<path d="M58.9897 48.384C63.5704 48.384 67.4026 44.6723 67.4026 40.2722C67.4026 35.8721 63.5704 32.1903 58.9897 32.1903C54.379 32.1903 50.5169 35.8721 50.5169 40.2722C50.5169 44.6723 54.379 48.384 58.9897 48.384ZM58.9897 44.7023C56.6544 44.7023 54.7084 42.6668 54.7084 40.2722C54.7084 37.8776 56.6544 35.8721 58.9897 35.8721C61.295 35.8721 63.2411 37.8776 63.2411 40.2722C63.2411 42.6668 61.295 44.7023 58.9897 44.7023Z" fill="white"/>
<path d="M74.3302 48.0248H91.3057V44.0437H80.3779L91.1859 30.8134V27.4609H74.5397V31.442H85.1083L74.3002 44.6723L74.3302 48.0248Z" fill="white"/>
</g>
<defs>
<clipPath id="clip0_544_5533">
<rect width="180" height="51" fill="white"/>
</clipPath>
</defs>
</svg>
