<svg width="36" height="35" viewBox="0 0 36 35" fill="none" xmlns="http://www.w3.org/2000/svg">
<rect x="0.5" width="35" height="35" rx="6" fill="#3390BB"/>
<path d="M25.5 10H11.5C10.7044 10 9.94129 10.3161 9.37868 10.8787C8.81607 11.4413 8.5 12.2044 8.5 13V23C8.5 23.7956 8.81607 24.5587 9.37868 25.1213C9.94129 25.6839 10.7044 26 11.5 26H25.5C26.2956 26 27.0587 25.6839 27.6213 25.1213C28.1839 24.5587 28.5 23.7956 28.5 23V13C28.5 12.2044 28.1839 11.4413 27.6213 10.8787C27.0587 10.3161 26.2956 10 25.5 10ZM25.5 12L19 16.47C18.848 16.5578 18.6755 16.604 18.5 16.604C18.3245 16.604 18.152 16.5578 18 16.47L11.5 12H25.5Z" fill="white"/>
</svg>
