<svg width="36" height="35" viewBox="0 0 36 35" fill="none" xmlns="http://www.w3.org/2000/svg">
<rect x="0.5" width="35" height="35" rx="6" fill="#DA3031"/>
<path d="M17.1507 19.3239C18.1315 20.3399 19.3182 21.1243 20.6274 21.622L22.3987 20.1827C22.4512 20.1458 22.5135 20.126 22.5772 20.126C22.641 20.126 22.7032 20.1458 22.7557 20.1827L26.0445 22.3464C26.1694 22.4231 26.2751 22.5283 26.3532 22.6539C26.4314 22.7794 26.4799 22.9218 26.495 23.0697C26.51 23.2177 26.4912 23.3672 26.4399 23.5065C26.3886 23.6457 26.3063 23.7709 26.1996 23.8721L24.6585 25.4265C24.4378 25.6492 24.1666 25.8126 23.869 25.9022C23.5714 25.9917 23.2568 26.0047 22.9531 25.9399C19.9237 25.301 17.1315 23.8047 14.8956 21.622C12.7092 19.4176 11.1963 16.6127 10.5403 13.5476C10.4755 13.2423 10.489 12.9251 10.5796 12.6267C10.6701 12.3283 10.8346 12.0588 11.0571 11.8444L12.6545 10.2708C12.7534 10.1671 12.8739 10.0875 13.0071 10.0381C13.1404 9.98871 13.2828 9.97071 13.4238 9.98548C13.5648 10.0002 13.7007 10.0474 13.8213 10.1234C13.942 10.1994 14.0442 10.3023 14.1204 10.4243L16.3098 13.7395C16.3475 13.7916 16.3679 13.8546 16.3679 13.9194C16.3679 13.9842 16.3475 14.0473 16.3098 14.0993L14.8674 15.8696C15.368 17.1798 16.148 18.3598 17.1507 19.3239Z" fill="white"/>
</svg>
