<svg width="36" height="35" viewBox="0 0 36 35" fill="none" xmlns="http://www.w3.org/2000/svg">
<rect x="0.500977" width="35" height="35" rx="6" fill="#1565C0"/>
<g clip-path="url(#clip0)">
<path d="M25.4977 24.9998V24.9992H25.5012V19.8647C25.5012 17.3529 24.9605 15.418 22.024 15.418C20.6123 15.418 19.665 16.1926 19.2782 16.9271H19.2374V15.6525H16.4531V24.9992H19.3523V20.3711C19.3523 19.1525 19.5833 17.9741 21.0924 17.9741C22.5793 17.9741 22.6015 19.3648 22.6015 20.4492V24.9998H25.4977Z" fill="white"/>
<path d="M11.7324 15.6523H14.6351V24.9991H11.7324V15.6523Z" fill="white"/>
<path d="M13.1821 11C12.2541 11 11.501 11.7531 11.501 12.6812C11.501 13.6093 12.2541 14.3781 13.1821 14.3781C14.1102 14.3781 14.8633 13.6093 14.8633 12.6812C14.8627 11.7531 14.1096 11 13.1821 11V11Z" fill="white"/>
</g>
<defs>
<clipPath id="clip0">
<rect width="14" height="14" fill="white" transform="translate(11.501 11)"/>
</clipPath>
</defs>
</svg>
